<svg width="100" height="100" viewBox="0 0 100 100" fill="none" xmlns="http://www.w3.org/2000/svg">
<rect x="0.25" y="0.25" width="99.5" height="99.5" fill="#F6F6F6" stroke="#808080" stroke-width="0.5"/>
<mask id="path-2-inside-1" fill="white">
<path d="M61.9053 39.7335C62.0362 39.8575 62.2071 39.9307 62.3871 39.94C62.4783 39.9483 62.5701 39.9338 62.6542 39.8977C62.7383 39.8617 62.8121 39.8052 62.869 39.7335L73.469 29.1334C73.9727 28.6399 74.3728 28.0509 74.646 27.4008C74.9191 26.7508 75.0598 26.0528 75.0598 25.3477C75.0598 24.6425 74.9191 23.9445 74.646 23.2945C74.3728 22.6444 73.9727 22.0554 73.469 21.5619C72.4631 20.5615 71.102 20 69.6833 20C68.2646 20 66.9035 20.5615 65.8975 21.5619L55.2975 32.162C55.1883 32.3022 55.1172 32.4681 55.091 32.6438C55.1299 32.8157 55.1999 32.979 55.2975 33.1256L58.1196 35.9477L53.9897 40.1465C53.1343 39.5096 52.0963 39.1656 51.0299 39.1656C49.9635 39.1656 48.9255 39.5096 48.0701 40.1465L43.9402 35.9477L46.7623 33.1256C46.86 32.979 46.9299 32.8157 46.9688 32.6438C46.9426 32.4681 46.8715 32.3022 46.7623 32.162L36.1623 21.5619C35.1563 20.5615 33.7952 20 32.3765 20C30.9578 20 29.5968 20.5615 28.5908 21.5619C28.0871 22.0554 27.687 22.6444 27.4139 23.2945C27.1407 23.9445 27 24.6425 27 25.3477C27 26.0528 27.1407 26.7508 27.4139 27.4008C27.687 28.0509 28.0871 28.6399 28.5908 29.1334L39.1909 39.7335C39.2477 39.8052 39.3215 39.8617 39.4056 39.8977C39.4897 39.9338 39.5815 39.9483 39.6727 39.94C39.8528 39.9307 40.0236 39.8575 40.1545 39.7335L42.9766 36.9114L47.1065 41.1101C46.4753 41.9548 46.1342 42.981 46.1342 44.0354C46.1342 45.0899 46.4753 46.1161 47.1065 46.9608L42.9766 51.1595L40.1545 48.3374C40.0258 48.2113 39.8529 48.1407 39.6727 48.1407C39.4925 48.1407 39.3195 48.2113 39.1909 48.3374L28.5908 58.8687C27.5826 59.8712 27.0133 61.2327 27.0077 62.6544C26.9987 63.3601 27.1346 64.0602 27.4069 64.7113C27.6792 65.3625 28.0821 65.9509 28.5908 66.4402C29.0775 66.9521 29.6654 67.3573 30.3172 67.6298C30.9689 67.9024 31.6702 68.0364 32.3765 68.0233C33.0828 68.0364 33.7841 67.9024 34.4359 67.6298C35.0876 67.3573 35.6755 66.9521 36.1623 66.4402L43.3208 59.2817L41.5311 78.6234H39.0532C38.9601 78.6123 38.8658 78.6225 38.7772 78.6532C38.6887 78.6838 38.6083 78.7342 38.542 78.8005C38.4757 78.8667 38.4254 78.9472 38.3947 79.0357C38.364 79.1243 38.3538 79.2186 38.3649 79.3117C38.3649 79.4942 38.4374 79.6693 38.5665 79.7984C38.6956 79.9275 38.8706 80 39.0532 80H63.0066C63.1892 80 63.3643 79.9275 63.4933 79.7984C63.6224 79.6693 63.6949 79.4942 63.6949 79.3117C63.706 79.2186 63.6958 79.1243 63.6651 79.0357C63.6345 78.9472 63.5841 78.8667 63.5178 78.8005C63.4516 78.7342 63.3711 78.6838 63.2826 78.6532C63.194 78.6225 63.0997 78.6123 63.0066 78.6234H60.5287L58.7391 59.2817L65.8975 66.4402C66.6483 67.1867 67.6031 67.6947 68.6417 67.9001C69.6804 68.1055 70.7566 67.9992 71.735 67.5946C72.7135 67.19 73.5504 66.5051 74.1406 65.6261C74.7309 64.7471 75.048 63.7132 75.0522 62.6544C75.0465 61.2327 74.4772 59.8712 73.469 58.8687L62.869 48.3374C62.7403 48.2113 62.5673 48.1407 62.3871 48.1407C62.207 48.1407 62.034 48.2113 61.9053 48.3374L59.0832 51.1595L54.9533 46.9608C55.5845 46.1161 55.9256 45.0899 55.9256 44.0354C55.9256 42.981 55.5845 41.9548 54.9533 41.1101L59.0832 36.9114L61.9053 39.7335ZM39.6727 38.288L29.5544 28.1698C29.1806 27.8015 28.8844 27.362 28.6834 26.8773C28.4824 26.3925 28.3807 25.8724 28.3843 25.3477C28.3847 24.289 28.8056 23.2739 29.5544 22.5256L29.0726 22.0437L29.5544 22.5256C30.3116 21.7938 31.3235 21.3848 32.3765 21.3848C33.4295 21.3848 34.4414 21.7938 35.1986 22.5256L45.248 32.6438L42.9766 34.9841L42.4259 35.4659L39.6727 38.288ZM53.5078 41.5231C54.0812 42.0984 54.4373 42.8548 54.5154 43.6633C54.5936 44.4718 54.3889 45.2824 53.9364 45.9569C53.4838 46.6314 52.8114 47.1281 52.0336 47.3623C51.2558 47.5965 50.4209 47.5538 49.6711 47.2414C48.9214 46.929 48.3031 46.3662 47.9218 45.6491C47.5405 44.9319 47.4196 44.1047 47.5799 43.3084C47.7402 42.5121 48.1716 41.796 48.8007 41.2822C49.4298 40.7684 50.2176 40.4886 51.0299 40.4906C51.9601 40.4929 52.8513 40.8642 53.5078 41.5231ZM44.0091 51.9855V52.192H43.9402L44.0091 51.9855ZM35.1986 65.4765C34.8327 65.8554 34.3943 66.1567 33.9094 66.3625C33.4246 66.5683 32.9032 66.6743 32.3765 66.6743C31.8498 66.6743 31.3285 66.5683 30.8436 66.3625C30.3588 66.1567 29.9203 65.8554 29.5544 65.4765C29.1806 65.1083 28.8844 64.6688 28.6834 64.184C28.4824 63.6993 28.3807 63.1792 28.3843 62.6544C28.3847 61.5958 28.8056 60.5807 29.5544 59.8323L39.6727 49.7829L45.248 55.4271L35.1986 65.4765ZM59.152 78.6234H42.9078L44.9039 57.7674L46.7623 55.9089C46.86 55.7622 46.9299 55.5989 46.9688 55.4271C46.9596 55.247 46.8864 55.0762 46.7623 54.9453L45.3169 53.431L45.5922 50.4712L48.0701 47.9244C48.9298 48.5511 49.9661 48.8887 51.0299 48.8887C52.0937 48.8887 53.13 48.5511 53.9897 47.9244L56.4676 50.4712L56.7429 53.431L55.2975 54.9453C55.1966 55.0857 55.1424 55.2542 55.1424 55.4271C55.1424 55.6 55.1966 55.7685 55.2975 55.9089L57.1559 57.7674L59.152 78.6234ZM62.3871 49.7829L72.5054 59.8323C73.2542 60.5807 73.6751 61.5958 73.6755 62.6544C73.6791 63.1792 73.5774 63.6993 73.3764 64.184C73.1754 64.6688 72.8792 65.1083 72.5054 65.4765C72.1395 65.8554 71.701 66.1567 71.2162 66.3625C70.7313 66.5683 70.21 66.6743 69.6833 66.6743C69.1566 66.6743 68.6353 66.5683 68.1504 66.3625C67.6656 66.1567 67.2271 65.8554 66.8612 65.4765L56.8118 55.4271L62.3871 49.7829ZM58.0507 52.192V52.1232V52.192ZM56.8118 32.6438L66.8612 22.5256C67.6184 21.7938 68.6303 21.3848 69.6833 21.3848C70.7363 21.3848 71.7482 21.7938 72.5054 22.5256C73.2542 23.2739 73.6751 24.289 73.6755 25.3477C73.6791 25.8724 73.5774 26.3925 73.3764 26.8773C73.1754 27.362 72.8792 27.8015 72.5054 28.1698L62.3871 38.288L60.1157 35.9477L59.0832 34.9841L56.8118 32.6438Z"/>
</mask>
<path d="M61.9053 39.7335C62.0362 39.8575 62.2071 39.9307 62.3871 39.94C62.4783 39.9483 62.5701 39.9338 62.6542 39.8977C62.7383 39.8617 62.8121 39.8052 62.869 39.7335L73.469 29.1334C73.9727 28.6399 74.3728 28.0509 74.646 27.4008C74.9191 26.7508 75.0598 26.0528 75.0598 25.3477C75.0598 24.6425 74.9191 23.9445 74.646 23.2945C74.3728 22.6444 73.9727 22.0554 73.469 21.5619C72.4631 20.5615 71.102 20 69.6833 20C68.2646 20 66.9035 20.5615 65.8975 21.5619L55.2975 32.162C55.1883 32.3022 55.1172 32.4681 55.091 32.6438C55.1299 32.8157 55.1999 32.979 55.2975 33.1256L58.1196 35.9477L53.9897 40.1465C53.1343 39.5096 52.0963 39.1656 51.0299 39.1656C49.9635 39.1656 48.9255 39.5096 48.0701 40.1465L43.9402 35.9477L46.7623 33.1256C46.86 32.979 46.9299 32.8157 46.9688 32.6438C46.9426 32.4681 46.8715 32.3022 46.7623 32.162L36.1623 21.5619C35.1563 20.5615 33.7952 20 32.3765 20C30.9578 20 29.5968 20.5615 28.5908 21.5619C28.0871 22.0554 27.687 22.6444 27.4139 23.2945C27.1407 23.9445 27 24.6425 27 25.3477C27 26.0528 27.1407 26.7508 27.4139 27.4008C27.687 28.0509 28.0871 28.6399 28.5908 29.1334L39.1909 39.7335C39.2477 39.8052 39.3215 39.8617 39.4056 39.8977C39.4897 39.9338 39.5815 39.9483 39.6727 39.94C39.8528 39.9307 40.0236 39.8575 40.1545 39.7335L42.9766 36.9114L47.1065 41.1101C46.4753 41.9548 46.1342 42.981 46.1342 44.0354C46.1342 45.0899 46.4753 46.1161 47.1065 46.9608L42.9766 51.1595L40.1545 48.3374C40.0258 48.2113 39.8529 48.1407 39.6727 48.1407C39.4925 48.1407 39.3195 48.2113 39.1909 48.3374L28.5908 58.8687C27.5826 59.8712 27.0133 61.2327 27.0077 62.6544C26.9987 63.3601 27.1346 64.0602 27.4069 64.7113C27.6792 65.3625 28.0821 65.9509 28.5908 66.4402C29.0775 66.9521 29.6654 67.3573 30.3172 67.6298C30.9689 67.9024 31.6702 68.0364 32.3765 68.0233C33.0828 68.0364 33.7841 67.9024 34.4359 67.6298C35.0876 67.3573 35.6755 66.9521 36.1623 66.4402L43.3208 59.2817L41.5311 78.6234H39.0532C38.9601 78.6123 38.8658 78.6225 38.7772 78.6532C38.6887 78.6838 38.6083 78.7342 38.542 78.8005C38.4757 78.8667 38.4254 78.9472 38.3947 79.0357C38.364 79.1243 38.3538 79.2186 38.3649 79.3117C38.3649 79.4942 38.4374 79.6693 38.5665 79.7984C38.6956 79.9275 38.8706 80 39.0532 80H63.0066C63.1892 80 63.3643 79.9275 63.4933 79.7984C63.6224 79.6693 63.6949 79.4942 63.6949 79.3117C63.706 79.2186 63.6958 79.1243 63.6651 79.0357C63.6345 78.9472 63.5841 78.8667 63.5178 78.8005C63.4516 78.7342 63.3711 78.6838 63.2826 78.6532C63.194 78.6225 63.0997 78.6123 63.0066 78.6234H60.5287L58.7391 59.2817L65.8975 66.4402C66.6483 67.1867 67.6031 67.6947 68.6417 67.9001C69.6804 68.1055 70.7566 67.9992 71.735 67.5946C72.7135 67.19 73.5504 66.5051 74.1406 65.6261C74.7309 64.7471 75.048 63.7132 75.0522 62.6544C75.0465 61.2327 74.4772 59.8712 73.469 58.8687L62.869 48.3374C62.7403 48.2113 62.5673 48.1407 62.3871 48.1407C62.207 48.1407 62.034 48.2113 61.9053 48.3374L59.0832 51.1595L54.9533 46.9608C55.5845 46.1161 55.9256 45.0899 55.9256 44.0354C55.9256 42.981 55.5845 41.9548 54.9533 41.1101L59.0832 36.9114L61.9053 39.7335ZM39.6727 38.288L29.5544 28.1698C29.1806 27.8015 28.8844 27.362 28.6834 26.8773C28.4824 26.3925 28.3807 25.8724 28.3843 25.3477C28.3847 24.289 28.8056 23.2739 29.5544 22.5256L29.0726 22.0437L29.5544 22.5256C30.3116 21.7938 31.3235 21.3848 32.3765 21.3848C33.4295 21.3848 34.4414 21.7938 35.1986 22.5256L45.248 32.6438L42.9766 34.9841L42.4259 35.4659L39.6727 38.288ZM53.5078 41.5231C54.0812 42.0984 54.4373 42.8548 54.5154 43.6633C54.5936 44.4718 54.3889 45.2824 53.9364 45.9569C53.4838 46.6314 52.8114 47.1281 52.0336 47.3623C51.2558 47.5965 50.4209 47.5538 49.6711 47.2414C48.9214 46.929 48.3031 46.3662 47.9218 45.6491C47.5405 44.9319 47.4196 44.1047 47.5799 43.3084C47.7402 42.5121 48.1716 41.796 48.8007 41.2822C49.4298 40.7684 50.2176 40.4886 51.0299 40.4906C51.9601 40.4929 52.8513 40.8642 53.5078 41.5231ZM44.0091 51.9855V52.192H43.9402L44.0091 51.9855ZM35.1986 65.4765C34.8327 65.8554 34.3943 66.1567 33.9094 66.3625C33.4246 66.5683 32.9032 66.6743 32.3765 66.6743C31.8498 66.6743 31.3285 66.5683 30.8436 66.3625C30.3588 66.1567 29.9203 65.8554 29.5544 65.4765C29.1806 65.1083 28.8844 64.6688 28.6834 64.184C28.4824 63.6993 28.3807 63.1792 28.3843 62.6544C28.3847 61.5958 28.8056 60.5807 29.5544 59.8323L39.6727 49.7829L45.248 55.4271L35.1986 65.4765ZM59.152 78.6234H42.9078L44.9039 57.7674L46.7623 55.9089C46.86 55.7622 46.9299 55.5989 46.9688 55.4271C46.9596 55.247 46.8864 55.0762 46.7623 54.9453L45.3169 53.431L45.5922 50.4712L48.0701 47.9244C48.9298 48.5511 49.9661 48.8887 51.0299 48.8887C52.0937 48.8887 53.13 48.5511 53.9897 47.9244L56.4676 50.4712L56.7429 53.431L55.2975 54.9453C55.1966 55.0857 55.1424 55.2542 55.1424 55.4271C55.1424 55.6 55.1966 55.7685 55.2975 55.9089L57.1559 57.7674L59.152 78.6234ZM62.3871 49.7829L72.5054 59.8323C73.2542 60.5807 73.6751 61.5958 73.6755 62.6544C73.6791 63.1792 73.5774 63.6993 73.3764 64.184C73.1754 64.6688 72.8792 65.1083 72.5054 65.4765C72.1395 65.8554 71.701 66.1567 71.2162 66.3625C70.7313 66.5683 70.21 66.6743 69.6833 66.6743C69.1566 66.6743 68.6353 66.5683 68.1504 66.3625C67.6656 66.1567 67.2271 65.8554 66.8612 65.4765L56.8118 55.4271L62.3871 49.7829ZM58.0507 52.192V52.1232V52.192ZM56.8118 32.6438L66.8612 22.5256C67.6184 21.7938 68.6303 21.3848 69.6833 21.3848C70.7363 21.3848 71.7482 21.7938 72.5054 22.5256C73.2542 23.2739 73.6751 24.289 73.6755 25.3477C73.6791 25.8724 73.5774 26.3925 73.3764 26.8773C73.1754 27.362 72.8792 27.8015 72.5054 28.1698L62.3871 38.288L60.1157 35.9477L59.0832 34.9841L56.8118 32.6438Z" fill="#808080" stroke="#F6F6F6" stroke-width="0.6" mask="url(#path-2-inside-1)"/>
</svg>
