<svg width="100" height="100" viewBox="0 0 100 100" fill="none" xmlns="http://www.w3.org/2000/svg">
<rect x="0.25" y="0.25" width="99.5" height="99.5" fill="#F6F6F6" stroke="#808080" stroke-width="0.5"/>
<path d="M61.5688 29.7956V30.4456H62.2188H72.7735C76.2934 30.4456 79.16 33.3122 79.16 36.8321V45.1879C79.16 45.6775 78.8435 46.1037 78.3843 46.2475L78.3824 46.2482L77.8547 46.4153L77.4009 46.559V47.0349V68.4962C77.4009 72.016 74.5343 74.8826 71.0144 74.8826H28.7956C25.2757 74.8826 22.4091 72.016 22.4091 68.4962V47.0349V46.559L21.9553 46.4153L21.4276 46.2481L21.4257 46.2475C20.9665 46.1037 20.65 45.6775 20.65 45.1879V36.8321C20.65 33.3122 23.5166 30.4456 27.0365 30.4456H37.5912H38.2412V29.7956V28.0365C38.2412 24.5166 41.1078 21.65 44.6276 21.65H55.1824C58.7022 21.65 61.5688 24.5166 61.5688 28.0365V29.7956ZM58.7006 30.4456H59.3506V29.7956V28.0365C59.3506 25.7337 57.4852 23.8682 55.1824 23.8682H44.6276C42.3248 23.8682 40.4594 25.7337 40.4594 28.0365V29.7956V30.4456H41.1094H58.7006ZM25.4714 47.514L24.6274 47.2501V48.1344V68.4962C24.6274 70.799 26.4928 72.6644 28.7956 72.6644H71.0144C73.3172 72.6644 75.1827 70.799 75.1827 68.4962V48.1256V47.2413L74.3386 47.5052L54.9883 53.5566L54.5324 53.6992V54.177V56.1824C54.5324 57.2746 53.636 58.171 52.5437 58.171H47.2663C46.174 58.171 45.2776 57.2746 45.2776 56.1824V54.1858V53.708L44.8217 53.5654L25.4714 47.514ZM47.4959 55.3028V55.9528H48.1459H51.6641H52.3141V55.3028V51.7846V51.1346H51.6641H48.1459H47.4959V51.7846V55.3028ZM76.4855 44.5154L76.9418 44.3729V43.8949V36.8321C76.9418 34.5292 75.0763 32.6638 72.7735 32.6638H27.0365C24.7337 32.6638 22.8682 34.5292 22.8682 36.8321V43.8949V44.3729L23.3245 44.5154L44.4779 51.1209L45.1992 51.3461L45.3141 50.5992C45.4603 49.6486 46.2777 48.9163 47.2663 48.9163H52.5437C53.5323 48.9163 54.3497 49.6486 54.4959 50.5992L54.6108 51.3461L55.3321 51.1209L76.4855 44.5154Z" fill="#808080" stroke="#F6F6F6" stroke-width="1.3"/>
</svg>
