<svg width="100" height="100" viewBox="0 0 100 100" fill="none" xmlns="http://www.w3.org/2000/svg">
<rect x="0.25" y="0.25" width="99.5" height="99.5" fill="#F6F6F6" stroke="#808080" stroke-width="0.5"/>
<path d="M39.5194 74.245L40.5749 73.5195C47.0122 69.0952 53.0112 64.0648 58.4897 58.4971L58.497 58.4896L58.4971 58.4897C64.0648 53.0112 69.0952 47.0122 73.5195 40.5749L74.245 39.5194L74.6686 40.7281C76.3272 45.4608 76.6155 50.5658 75.5002 55.4551C74.385 60.3444 71.9116 64.8193 68.3648 68.3646C68.3647 68.3647 68.3647 68.3647 68.3646 68.3648M39.5194 74.245L41.715 74.3122C46.1124 75.7003 50.8053 75.8942 55.3106 74.8665C60.0806 73.7784 64.4463 71.3653 67.9051 67.9051L68.3646 68.3648M39.5194 74.245L40.7281 74.6686C45.4608 76.3272 50.5658 76.6155 55.4551 75.5002C60.3444 74.385 64.8193 71.9116 68.3646 68.3648M39.5194 74.245L68.3646 68.3648M65.9657 25.8107L66.2922 26.0376L66.6429 25.8503C69.5818 24.2806 72.0125 23.3917 73.9441 23.144C75.8617 22.8981 77.2117 23.2895 78.1255 24.1868C79.0868 25.1574 79.4736 26.6223 79.1213 28.7526C78.7671 30.8946 77.6768 33.6107 75.8147 36.924L75.6507 37.2159L75.7931 37.5189C78.3124 42.879 79.1187 48.8853 78.1024 54.72C77.086 60.5548 74.2964 65.9347 70.1132 70.1273C65.9299 74.32 60.5564 77.1217 54.7239 78.1512C48.8914 79.1806 42.8834 78.3878 37.5176 75.8806L37.1871 75.7262L36.8832 75.9278C34.0121 77.8319 30.7192 79.0052 27.2911 79.3455C26.7232 79.3717 26.1557 79.2846 25.6217 79.0892C25.0888 78.8942 24.6 78.5954 24.1837 78.21C23.2856 77.259 22.8991 75.8839 23.144 73.9612C23.3918 72.0164 24.2808 69.5813 25.8503 66.6429L26.0376 66.2922L25.8107 65.9657C21.9492 60.4104 20.1629 53.6746 20.7642 46.9358C21.3654 40.197 24.3159 33.8839 29.0999 29.0999C33.8839 24.3159 40.197 21.3654 46.9358 20.7642C53.6746 20.1629 60.4104 21.9492 65.9657 25.8107ZM73.7711 33.8905L74.3804 34.8488L74.8981 33.8381C76.0255 31.637 76.6384 29.8945 76.8895 28.6015C77.0148 27.9561 77.0543 27.4009 77.0111 26.9455C76.9698 26.5109 76.844 26.0745 76.5456 25.7732C76.2911 25.5117 75.9212 25.3782 75.538 25.3188C75.1374 25.2568 74.6428 25.263 74.0531 25.3498C72.8732 25.5234 71.2348 26.0315 69.0495 27.0884L68.1871 27.5054L68.8932 28.1527L69.9402 29.1124C71.3878 30.5605 72.6724 32.1627 73.7711 33.8905ZM30.6679 30.6679L30.668 30.668C25.7033 35.6624 22.9155 42.4192 22.9155 49.4634C22.9155 56.5325 25.723 63.3122 30.7207 68.3117L30.7217 68.3128C32.5214 70.105 34.5633 71.6364 36.7877 72.8623L37.1282 73.0499L37.4546 72.8387C44.5233 68.2632 51.0606 62.9149 56.9455 56.8927C62.9678 51.0077 68.3161 44.4705 72.8915 37.4018L73.1028 37.0754L72.9151 36.7348C71.6892 34.5104 70.1579 32.4686 68.3657 30.6689L68.3646 30.6678C63.3651 25.6701 56.5854 22.8626 49.5163 22.8626C42.4721 22.8626 35.7152 25.6504 30.7208 30.6151L30.7208 30.615L30.7207 30.6151L30.668 30.6678L30.6679 30.6679ZM28.1448 68.8848L27.4975 68.2034L27.0884 69.0495C26.0315 71.2348 25.5234 72.8732 25.3498 74.0531C25.263 74.6428 25.2568 75.1374 25.3188 75.538C25.3782 75.9212 25.5117 76.2911 25.7732 76.5456C26.0744 76.844 26.5107 76.9698 26.9451 77.0113C27.4002 77.0549 27.9552 77.016 28.6004 76.8919C29.893 76.6432 31.6353 76.035 33.8362 74.9167L34.8524 74.4003L33.8905 73.7887C32.1611 72.689 30.5575 71.4031 29.1085 69.9539C28.9533 69.7902 28.8047 69.6211 28.6466 69.4411L28.6429 69.4368C28.4867 69.2589 28.321 69.0703 28.1448 68.8848Z" fill="#808080" stroke="#F6F6F6" stroke-width="1.3"/>
</svg>
