<svg width="100" height="100" viewBox="0 0 100 100" fill="none" xmlns="http://www.w3.org/2000/svg">
<rect x="0.25" y="0.25" width="99.5" height="99.5" fill="#F6F6F6" stroke="#808080" stroke-width="0.5"/>
<path d="M61.8182 60.5682H61.5682V60.8182V78.0909C61.5682 78.4549 61.2731 78.75 60.9091 78.75H29.0909C28.7269 78.75 28.4318 78.4549 28.4318 78.0909V60.8182V60.5682H28.1818H26.3636C24.6575 60.5682 23.1348 59.4155 22.0252 57.4739C20.9179 55.5365 20.25 52.8539 20.25 49.9091C20.25 45.5146 21.7339 41.7364 23.9157 40.1095L24.1845 39.9091L23.9157 39.7087C21.7339 38.0817 20.25 34.3036 20.25 29.9091C20.25 26.9643 20.9179 24.2817 22.0252 22.3443C23.1348 20.4027 24.6575 19.25 26.3636 19.25H73.6364C75.3425 19.25 76.8652 20.4027 77.9748 22.3443C79.0821 24.2817 79.75 26.9643 79.75 29.9091C79.75 34.3036 78.2661 38.0817 76.0843 39.7087L75.8155 39.9091L76.0843 40.1095C78.2661 41.7364 79.75 45.5146 79.75 49.9091C79.75 52.8539 79.0821 55.5365 77.9748 57.4739C76.8652 59.4155 75.3425 60.5682 73.6364 60.5682H61.8182ZM70.2554 20.9826L70.6173 20.5682H70.0671H26.3636C25.0365 20.5682 23.8358 21.6818 22.9829 23.3416C22.1207 25.0194 21.5682 27.3325 21.5682 29.9091C21.5682 32.4857 22.1207 34.7988 22.9829 36.4766C23.8358 38.1364 25.0365 39.25 26.3636 39.25H70.0671H70.6173L70.2554 38.8355C68.5907 36.9295 67.5227 33.6341 67.5227 29.9091C67.5227 26.1841 68.5907 22.8887 70.2554 20.9826ZM60.25 73.0129V72.9094L60.1768 72.8361L50.1768 62.8361L50 62.6594L49.8232 62.8361L40.466 72.1933C40.2086 72.4507 39.7914 72.4507 39.534 72.1933C39.2766 71.9359 39.2766 71.5186 39.534 71.2612L41.6184 69.1768L41.7952 69L41.6184 68.8232L37.4495 64.6543L37.2727 64.4776L37.096 64.6543L29.8232 71.9271L29.75 72.0003V72.1038V77.1818V77.4318H30H60H60.25V77.1818V73.0129ZM59.8232 70.6184L60.25 71.0452V70.4416V49.9091C60.25 46.1841 61.3179 42.8887 62.9826 40.9826L63.3446 40.5682H62.7943H34.5455C33.2183 40.5682 32.0177 41.6818 31.1647 43.3416C30.3025 45.0194 29.75 47.3325 29.75 49.9091V69.5325V70.1361L30.1768 69.7093L36.8067 63.0794C37.0641 62.822 37.4814 62.822 37.7388 63.0794L42.5505 67.8911L42.7273 68.0679L42.9041 67.8911L49.534 61.2612C49.7914 61.0038 50.2086 61.0038 50.466 61.2612L59.8232 70.6184ZM61.5682 59V59.25H61.8182H70.0671H70.6173L70.2554 58.8355C68.5907 56.9295 67.5227 53.6341 67.5227 49.9091C67.5227 46.1841 68.5907 42.8887 70.2554 40.9826L70.6173 40.5682H70.0671H66.3636C65.0365 40.5682 63.8358 41.6818 62.9829 43.3416C62.1207 45.0194 61.5682 47.3325 61.5682 49.9091V59ZM28.1818 59.25H28.4318V59V49.9091C28.4318 46.1841 29.4997 42.8887 31.1644 40.9826L31.5264 40.5682H30.9761H26.3636C25.0365 40.5682 23.8358 41.6818 22.9829 43.3416C22.1207 45.0194 21.5682 47.3325 21.5682 49.9091C21.5682 52.4857 22.1207 54.7988 22.9829 56.4766C23.8358 58.1364 25.0365 59.25 26.3636 59.25H28.1818ZM73.6364 39.25C74.9635 39.25 76.1642 38.1364 77.0171 36.4766C77.8793 34.7988 78.4318 32.4857 78.4318 29.9091C78.4318 27.3325 77.8793 25.0194 77.0171 23.3416C76.1642 21.6818 74.9635 20.5682 73.6364 20.5682C72.3092 20.5682 71.1086 21.6818 70.2556 23.3416C69.3934 25.0194 68.8409 27.3325 68.8409 29.9091C68.8409 32.4857 69.3934 34.7988 70.2556 36.4766C71.1086 38.1364 72.3092 39.25 73.6364 39.25ZM73.6364 59.25C74.9635 59.25 76.1642 58.1364 77.0171 56.4766C77.8793 54.7988 78.4318 52.4857 78.4318 49.9091C78.4318 47.3325 77.8793 45.0194 77.0171 43.3416C76.1642 41.6818 74.9635 40.5682 73.6364 40.5682C72.3092 40.5682 71.1086 41.6818 70.2556 43.3416C69.3934 45.0194 68.8409 47.3325 68.8409 49.9091C68.8409 52.4857 69.3934 54.7988 70.2556 56.4766C71.1086 58.1364 72.3092 59.25 73.6364 59.25ZM39.0909 57.8409C36.7186 57.8409 34.7955 55.9178 34.7955 53.5455C34.7955 51.1731 36.7186 49.25 39.0909 49.25C41.4632 49.25 43.3864 51.1731 43.3864 53.5455C43.3864 55.9178 41.4632 57.8409 39.0909 57.8409ZM39.0909 56.5227C40.7352 56.5227 42.0682 55.1898 42.0682 53.5455C42.0682 51.9011 40.7352 50.5682 39.0909 50.5682C37.4466 50.5682 36.1136 51.9011 36.1136 53.5455C36.1136 55.1898 37.4466 56.5227 39.0909 56.5227Z" fill="#808080" stroke="#F6F6F6" stroke-width="0.5"/>
</svg>
