<svg width="100" height="100" viewBox="0 0 100 100" fill="none" xmlns="http://www.w3.org/2000/svg">
<rect x="0.25" y="0.25" width="99.5" height="99.5" fill="#F6F6F6" stroke="#808080" stroke-width="0.5"/>
<mask id="path-2-inside-1" fill="white">
<path fill-rule="evenodd" clip-rule="evenodd" d="M24.5196 35.2996C24.6337 35.7567 25.0439 36.0772 25.5142 36.0768C25.6199 36.0776 25.725 36.0619 25.8258 36.0303L42.1163 30.9487C42.6334 30.7871 42.935 30.2497 42.8042 29.7232C42.0997 26.8801 40.3359 24.4821 37.9653 23.1437C35.8772 21.9461 33.3851 21.6752 31.0891 22.3964C29.0327 23.0384 27.3238 24.3955 26.1201 26.1572L14.6694 38.4405C14.4232 38.7043 14.3338 39.0784 14.434 39.4253L22.2447 66.4185H20.5759C17.1656 66.4231 14.4022 69.1914 14.3976 72.6078V72.8535C14.3972 73.1254 14.5048 73.3863 14.6967 73.5785C14.8886 73.7708 15.149 73.8786 15.4204 73.8782H34.0913C34.3627 73.8786 34.6231 73.7708 34.815 73.5785C35.007 73.3863 35.1146 73.1254 35.1141 72.8535V72.6078C35.1096 69.1914 32.3461 66.4231 28.9358 66.4185H24.3375C24.3361 66.3297 24.3231 66.2396 24.2975 66.1501L16.5576 39.4136L24.264 31.1469C24.1013 32.4989 24.1745 33.9066 24.5196 35.2996ZM27.707 27.4437C27.7264 27.4174 27.7444 27.3904 27.761 27.3626C28.7135 25.9503 30.0648 24.8669 31.6925 24.3593C32.3278 24.1601 32.9896 24.0588 33.6553 24.0587C34.8105 24.0619 35.9453 24.3645 36.9492 24.9372C38.5737 25.8522 39.8435 27.4132 40.5265 29.3013L26.3 33.7403C26.0039 31.4567 26.5497 29.203 27.707 27.4437ZM71.6172 64.6141H82.7238C84.7048 64.6114 86.31 63.0033 86.3127 61.0188V35.8152C86.31 33.8307 84.7048 32.2226 82.7238 32.2198H45.7151C43.7341 32.2226 42.1289 33.8307 42.1262 35.8152V61.0188C42.1289 63.0033 43.7341 64.6114 45.7151 64.6141H56.9049V68.0541H55.3168C52.9394 68.0614 51.014 69.9903 51.0067 72.3719C51.0063 72.6437 51.1139 72.9046 51.3058 73.0969C51.4977 73.2891 51.7581 73.3969 52.0295 73.3965H76.3151C76.8772 73.3928 77.3306 72.9349 77.3297 72.3719C77.3224 69.9903 75.397 68.0614 73.0196 68.0541H71.6172V64.6141ZM58.9489 64.6141H69.5699V68.0474H58.9505L58.9489 64.6141ZM70.7331 62.5666H82.7238C83.5767 62.5657 84.2678 61.8732 84.2688 61.0188V35.8152C84.2678 34.9607 83.5767 34.2683 82.7238 34.2674H45.7151C44.8622 34.2683 44.1711 34.9607 44.1701 35.8152V61.0188C44.1711 61.8732 44.8622 62.5657 45.7151 62.5666H57.789C57.8347 62.5604 57.8811 62.5572 57.9277 62.5573H70.591C70.6388 62.5571 70.6863 62.5602 70.7331 62.5666ZM53.2944 71.3489H75.0503C74.6634 70.5809 73.8783 70.0961 73.0196 70.0951H55.3251C54.4664 70.0961 53.6812 70.5809 53.2944 71.3489ZM32.9922 71.8306H16.5195H16.5128C16.8888 69.8801 18.5913 68.4698 20.5743 68.4661H28.9308C30.9138 68.4698 32.6163 69.8801 32.9922 71.8306Z"/>
</mask>
<path fill-rule="evenodd" clip-rule="evenodd" d="M24.5196 35.2996C24.6337 35.7567 25.0439 36.0772 25.5142 36.0768C25.6199 36.0776 25.725 36.0619 25.8258 36.0303L42.1163 30.9487C42.6334 30.7871 42.935 30.2497 42.8042 29.7232C42.0997 26.8801 40.3359 24.4821 37.9653 23.1437C35.8772 21.9461 33.3851 21.6752 31.0891 22.3964C29.0327 23.0384 27.3238 24.3955 26.1201 26.1572L14.6694 38.4405C14.4232 38.7043 14.3338 39.0784 14.434 39.4253L22.2447 66.4185H20.5759C17.1656 66.4231 14.4022 69.1914 14.3976 72.6078V72.8535C14.3972 73.1254 14.5048 73.3863 14.6967 73.5785C14.8886 73.7708 15.149 73.8786 15.4204 73.8782H34.0913C34.3627 73.8786 34.6231 73.7708 34.815 73.5785C35.007 73.3863 35.1146 73.1254 35.1141 72.8535V72.6078C35.1096 69.1914 32.3461 66.4231 28.9358 66.4185H24.3375C24.3361 66.3297 24.3231 66.2396 24.2975 66.1501L16.5576 39.4136L24.264 31.1469C24.1013 32.4989 24.1745 33.9066 24.5196 35.2996ZM27.707 27.4437C27.7264 27.4174 27.7444 27.3904 27.761 27.3626C28.7135 25.9503 30.0648 24.8669 31.6925 24.3593C32.3278 24.1601 32.9896 24.0588 33.6553 24.0587C34.8105 24.0619 35.9453 24.3645 36.9492 24.9372C38.5737 25.8522 39.8435 27.4132 40.5265 29.3013L26.3 33.7403C26.0039 31.4567 26.5497 29.203 27.707 27.4437ZM71.6172 64.6141H82.7238C84.7048 64.6114 86.31 63.0033 86.3127 61.0188V35.8152C86.31 33.8307 84.7048 32.2226 82.7238 32.2198H45.7151C43.7341 32.2226 42.1289 33.8307 42.1262 35.8152V61.0188C42.1289 63.0033 43.7341 64.6114 45.7151 64.6141H56.9049V68.0541H55.3168C52.9394 68.0614 51.014 69.9903 51.0067 72.3719C51.0063 72.6437 51.1139 72.9046 51.3058 73.0969C51.4977 73.2891 51.7581 73.3969 52.0295 73.3965H76.3151C76.8772 73.3928 77.3306 72.9349 77.3297 72.3719C77.3224 69.9903 75.397 68.0614 73.0196 68.0541H71.6172V64.6141ZM58.9489 64.6141H69.5699V68.0474H58.9505L58.9489 64.6141ZM70.7331 62.5666H82.7238C83.5767 62.5657 84.2678 61.8732 84.2688 61.0188V35.8152C84.2678 34.9607 83.5767 34.2683 82.7238 34.2674H45.7151C44.8622 34.2683 44.1711 34.9607 44.1701 35.8152V61.0188C44.1711 61.8732 44.8622 62.5657 45.7151 62.5666H57.789C57.8347 62.5604 57.8811 62.5572 57.9277 62.5573H70.591C70.6388 62.5571 70.6863 62.5602 70.7331 62.5666ZM53.2944 71.3489H75.0503C74.6634 70.5809 73.8783 70.0961 73.0196 70.0951H55.3251C54.4664 70.0961 53.6812 70.5809 53.2944 71.3489ZM32.9922 71.8306H16.5195H16.5128C16.8888 69.8801 18.5913 68.4698 20.5743 68.4661H28.9308C30.9138 68.4698 32.6163 69.8801 32.9922 71.8306Z" fill="#808080"/>
<path d="M25.5142 36.0768L25.5187 35.4768L25.5137 35.4768L25.5142 36.0768ZM24.5196 35.2996L23.9372 35.4439L23.9374 35.445L24.5196 35.2996ZM25.8258 36.0303L25.6472 35.4575L25.6464 35.4578L25.8258 36.0303ZM42.1163 30.9487L42.2949 31.5215L42.2952 31.5214L42.1163 30.9487ZM42.8042 29.7232L42.2218 29.8675L42.2219 29.8678L42.8042 29.7232ZM37.9653 23.1437L37.6668 23.6641L37.6703 23.6661L37.9653 23.1437ZM31.0891 22.3964L31.2679 22.9691L31.2689 22.9688L31.0891 22.3964ZM26.1201 26.1572L26.559 26.5664L26.5899 26.5332L26.6155 26.4957L26.1201 26.1572ZM14.6694 38.4405L15.108 38.8499L15.1083 38.8496L14.6694 38.4405ZM14.434 39.4253L13.8576 39.5919L13.8577 39.592L14.434 39.4253ZM22.2447 66.4185V67.0185H23.0429L22.8211 66.2517L22.2447 66.4185ZM20.5759 66.4185V65.8185L20.5751 65.8185L20.5759 66.4185ZM14.3976 72.6078L13.7976 72.607V72.6078H14.3976ZM14.3976 72.8535L14.9976 72.8545V72.8535H14.3976ZM14.6967 73.5785L15.1213 73.1546H15.1213L14.6967 73.5785ZM15.4204 73.8782V73.2781L15.4194 73.2782L15.4204 73.8782ZM34.0913 73.8782L34.0923 73.2782H34.0913V73.8782ZM34.815 73.5785L34.3904 73.1546L34.3904 73.1546L34.815 73.5785ZM35.1141 72.8535H34.5141L34.5141 72.8545L35.1141 72.8535ZM35.1141 72.6078H35.7141V72.607L35.1141 72.6078ZM28.9358 66.4185L28.9366 65.8185H28.9358V66.4185ZM24.3375 66.4185L23.7375 66.4277L23.7466 67.0185H24.3375V66.4185ZM24.2975 66.1501L24.8742 65.9847L24.8738 65.9833L24.2975 66.1501ZM16.5576 39.4136L16.1187 39.0045L15.8866 39.2535L15.9812 39.5805L16.5576 39.4136ZM24.264 31.1469L24.8597 31.2186L25.0796 29.3921L23.8252 30.7378L24.264 31.1469ZM27.761 27.3626L27.2636 27.0271L27.2546 27.0404L27.2464 27.0542L27.761 27.3626ZM27.707 27.4437L27.2241 27.0877L27.2146 27.1006L27.2057 27.114L27.707 27.4437ZM31.6925 24.3593L31.8712 24.932L31.872 24.9318L31.6925 24.3593ZM33.6553 24.0587L33.6569 23.4587L33.6552 23.4587L33.6553 24.0587ZM36.9492 24.9372L36.6519 25.4583L36.6547 25.4599L36.9492 24.9372ZM40.5265 29.3013L40.7052 29.8741L41.3041 29.6872L41.0907 29.0973L40.5265 29.3013ZM26.3 33.7403L25.7049 33.8174L25.7968 34.5258L26.4787 34.313L26.3 33.7403ZM82.7238 64.6141V65.2141L82.7246 65.2141L82.7238 64.6141ZM71.6172 64.6141V64.0141H71.0172V64.6141H71.6172ZM86.3127 61.0188L86.9127 61.0197V61.0188H86.3127ZM86.3127 35.8152H86.9127V35.8143L86.3127 35.8152ZM82.7238 32.2198L82.7246 31.6198H82.7238V32.2198ZM45.7151 32.2198V31.6198L45.7143 31.6198L45.7151 32.2198ZM42.1262 35.8152L41.5262 35.8143V35.8152H42.1262ZM42.1262 61.0188H41.5262V61.0197L42.1262 61.0188ZM45.7151 64.6141L45.7143 65.2141H45.7151V64.6141ZM56.9049 64.6141H57.5049V64.0141H56.9049V64.6141ZM56.9049 68.0541V68.6541H57.5049V68.0541H56.9049ZM55.3168 68.0541V67.4541L55.315 67.4542L55.3168 68.0541ZM51.0067 72.3719L50.4067 72.37V72.3709L51.0067 72.3719ZM51.3058 73.0969L51.7305 72.673L51.7305 72.673L51.3058 73.0969ZM52.0295 73.3965V72.7965L52.0286 72.7965L52.0295 73.3965ZM76.3151 73.3965V73.9965L76.319 73.9965L76.3151 73.3965ZM77.3297 72.3719L77.9297 72.3709V72.37L77.3297 72.3719ZM73.0196 68.0541L73.0214 67.4542H73.0196V68.0541ZM71.6172 68.0541H71.0172V68.6541H71.6172V68.0541ZM69.5699 64.6141H70.1699V64.0141H69.5699V64.6141ZM58.9489 64.6141V64.0141H58.3486L58.3489 64.6144L58.9489 64.6141ZM69.5699 68.0474V68.6474H70.1699V68.0474H69.5699ZM58.9505 68.0474L58.3505 68.0477L58.3508 68.6474H58.9505V68.0474ZM82.7238 62.5666V63.1666H82.7244L82.7238 62.5666ZM70.7331 62.5666L70.6524 63.1611L70.6926 63.1666H70.7331V62.5666ZM84.2688 61.0188L84.8688 61.0195V61.0188H84.2688ZM84.2688 35.8152H84.8688V35.8145L84.2688 35.8152ZM82.7238 34.2674L82.7244 33.6674H82.7238V34.2674ZM45.7151 34.2674V33.6674L45.7145 33.6674L45.7151 34.2674ZM44.1701 35.8152L43.5701 35.8145V35.8152H44.1701ZM44.1701 61.0188H43.5701V61.0195L44.1701 61.0188ZM45.7151 62.5666L45.7145 63.1666H45.7151V62.5666ZM57.789 62.5666V63.1666H57.8295L57.8696 63.1611L57.789 62.5666ZM57.9277 62.5573L57.9267 63.1573H57.9277V62.5573ZM70.591 62.5573V63.1573L70.594 63.1573L70.591 62.5573ZM75.0503 71.3489V71.9489H76.0244L75.5862 71.079L75.0503 71.3489ZM53.2944 71.3489L52.7585 71.079L52.3203 71.9489H53.2944V71.3489ZM73.0196 70.0951L73.0203 69.4951H73.0196V70.0951ZM55.3251 70.0951V69.4951L55.3244 69.4951L55.3251 70.0951ZM32.9922 71.8306V72.4306H33.719L33.5814 71.717L32.9922 71.8306ZM16.5128 71.8306L15.9237 71.717L15.7861 72.4306H16.5128V71.8306ZM20.5743 68.4661V67.8661L20.5731 67.8661L20.5743 68.4661ZM28.9308 68.4661L28.932 67.8661H28.9308V68.4661ZM25.5137 35.4768C25.3196 35.477 25.1492 35.3446 25.1017 35.1542L23.9374 35.445C24.1182 36.1688 24.7681 36.6774 25.5147 36.6768L25.5137 35.4768ZM25.6464 35.4578C25.6051 35.4707 25.562 35.4771 25.5187 35.4768L25.5097 36.6768C25.6777 36.6781 25.8449 36.6531 26.0053 36.6028L25.6464 35.4578ZM41.9376 30.3759L25.6472 35.4575L26.0045 36.6031L42.2949 31.5215L41.9376 30.3759ZM42.2219 29.8678C42.2764 30.0869 42.1506 30.3094 41.9373 30.376L42.2952 31.5214C43.1161 31.2649 43.5937 30.4125 43.3865 29.5785L42.2219 29.8678ZM37.6703 23.6661C39.8854 24.9168 41.5537 27.1711 42.2218 29.8675L43.3866 29.5788C42.6457 26.5891 40.7863 24.0474 38.2603 22.6212L37.6703 23.6661ZM31.2689 22.9688C33.4051 22.2978 35.7238 22.5498 37.6668 23.6641L38.2638 22.6232C36.0305 21.3424 33.365 21.0526 30.9093 21.8239L31.2689 22.9688ZM26.6155 26.4957C27.7513 24.8333 29.3537 23.5668 31.2679 22.9691L30.9103 21.8236C28.7117 22.5101 26.8963 23.9576 25.6247 25.8188L26.6155 26.4957ZM15.1083 38.8496L26.559 26.5664L25.6812 25.7481L14.2306 38.0314L15.1083 38.8496ZM15.0105 39.2587C14.9688 39.1145 15.0061 38.9592 15.108 38.8499L14.2308 38.0311C13.8404 38.4494 13.6988 39.0423 13.8576 39.5919L15.0105 39.2587ZM22.8211 66.2517L15.0104 39.2585L13.8577 39.592L21.6683 66.5853L22.8211 66.2517ZM20.5759 67.0185H22.2447V65.8185H20.5759V67.0185ZM14.9976 72.6086C15.0017 69.522 17.4982 67.0226 20.5767 67.0185L20.5751 65.8185C16.8331 65.8235 13.8026 68.8609 13.7976 72.607L14.9976 72.6086ZM14.9976 72.8535V72.6078H13.7976V72.8535H14.9976ZM15.1213 73.1546C15.0421 73.0752 14.9974 72.9673 14.9976 72.8545L13.7976 72.8526C13.7969 73.2836 13.9675 73.6973 14.272 74.0024L15.1213 73.1546ZM15.4194 73.2782C15.3078 73.2783 15.2005 73.234 15.1213 73.1546L14.272 74.0024C14.5766 74.3076 14.9902 74.4789 15.4214 74.4781L15.4194 73.2782ZM34.0913 73.2782H15.4204V74.4781H34.0913V73.2782ZM34.3904 73.1546C34.3112 73.234 34.2039 73.2783 34.0923 73.2782L34.0903 74.4781C34.5216 74.4789 34.9351 74.3076 35.2397 74.0024L34.3904 73.1546ZM34.5141 72.8545C34.5143 72.9673 34.4697 73.0752 34.3904 73.1546L35.2397 74.0024C35.5442 73.6973 35.7148 73.2836 35.7141 72.8526L34.5141 72.8545ZM34.5141 72.6078V72.8535H35.7141V72.6078H34.5141ZM28.935 67.0185C32.0136 67.0226 34.51 69.522 34.5141 72.6086L35.7141 72.607C35.7091 68.8609 32.6786 65.8235 28.9366 65.8185L28.935 67.0185ZM24.3375 67.0185H28.9358V65.8185H24.3375V67.0185ZM23.7207 66.3156C23.7317 66.3537 23.737 66.3913 23.7375 66.4277L24.9374 66.4094C24.9353 66.2681 24.9146 66.1255 24.8742 65.9847L23.7207 66.3156ZM15.9812 39.5805L23.7211 66.317L24.8738 65.9833L17.1339 39.2468L15.9812 39.5805ZM23.8252 30.7378L16.1187 39.0045L16.9965 39.8228L24.7029 31.5561L23.8252 30.7378ZM25.102 35.1554C24.7749 33.8348 24.7054 32.5004 24.8597 31.2186L23.6683 31.0752C23.4971 32.4974 23.5742 33.9783 23.9372 35.4439L25.102 35.1554ZM27.2464 27.0542C27.2395 27.0656 27.2321 27.0768 27.2241 27.0877L28.19 27.7998C28.2207 27.7581 28.2493 27.7151 28.2757 27.6711L27.2464 27.0542ZM31.5139 23.7865C29.7414 24.3393 28.2833 25.5152 27.2636 27.0271L28.2585 27.6981C29.1438 26.3854 30.3882 25.3946 31.8712 24.932L31.5139 23.7865ZM33.6552 23.4587C32.9287 23.4588 32.2064 23.5694 31.5131 23.7867L31.872 24.9318C32.4492 24.7508 33.0505 24.6588 33.6554 24.6587L33.6552 23.4587ZM37.2464 24.416C36.1525 23.792 34.9159 23.4621 33.6569 23.4587L33.6536 24.6587C34.7051 24.6616 35.738 24.937 36.6519 25.4583L37.2464 24.416ZM41.0907 29.0973C40.3639 27.0878 39.0056 25.4068 37.2436 24.4144L36.6547 25.4599C38.1419 26.2976 39.3232 27.7386 39.9623 29.5054L41.0907 29.0973ZM26.4787 34.313L40.7052 29.8741L40.3478 28.7286L26.1212 33.1675L26.4787 34.313ZM27.2057 27.114C25.9686 28.9946 25.3906 31.393 25.7049 33.8174L26.895 33.6631C26.6172 31.5204 27.1308 29.4113 28.2083 27.7735L27.2057 27.114ZM82.7238 64.0141H71.6172V65.2141H82.7238V64.0141ZM85.7127 61.018C85.7104 62.6728 84.3722 64.0119 82.7229 64.0141L82.7246 65.2141C85.0373 65.2109 86.9095 63.3339 86.9127 61.0197L85.7127 61.018ZM85.7127 35.8152V61.0188H86.9127V35.8152H85.7127ZM82.7229 32.8198C84.3722 32.8221 85.7104 34.1612 85.7127 35.816L86.9127 35.8143C86.9095 33.5001 85.0373 31.623 82.7246 31.6198L82.7229 32.8198ZM45.7151 32.8198H82.7238V31.6198H45.7151V32.8198ZM42.7262 35.816C42.7285 34.1612 44.0667 32.8221 45.716 32.8198L45.7143 31.6198C43.4016 31.623 41.5294 33.5001 41.5262 35.8143L42.7262 35.816ZM42.7262 61.0188V35.8152H41.5262V61.0188H42.7262ZM45.716 64.0141C44.0667 64.0119 42.7285 62.6728 42.7262 61.018L41.5262 61.0197C41.5294 63.3339 43.4016 65.2109 45.7143 65.2141L45.716 64.0141ZM56.9049 64.0141H45.7151V65.2141H56.9049V64.0141ZM57.5049 68.0541V64.6141H56.3049V68.0541H57.5049ZM55.3168 68.6541H56.9049V67.4542H55.3168V68.6541ZM51.6067 72.3737C51.613 70.3211 53.2722 68.6604 55.3186 68.6541L55.315 67.4542C52.6067 67.4625 50.415 69.6595 50.4067 72.37L51.6067 72.3737ZM51.7305 72.673C51.6512 72.5936 51.6065 72.4856 51.6067 72.3728L50.4067 72.3709C50.406 72.8019 50.5766 73.2157 50.8812 73.5207L51.7305 72.673ZM52.0286 72.7965C51.917 72.7967 51.8097 72.7523 51.7305 72.673L50.8812 73.5207C51.1858 73.8259 51.5993 73.9972 52.0305 73.9965L52.0286 72.7965ZM76.3151 72.7965H52.0295V73.9965H76.3151V72.7965ZM76.7297 72.3728C76.7301 72.6066 76.542 72.795 76.3112 72.7965L76.319 73.9965C77.2123 73.9907 77.9311 73.2631 77.9297 72.3709L76.7297 72.3728ZM73.0178 68.6541C75.0642 68.6604 76.7234 70.3211 76.7297 72.3737L77.9297 72.37C77.9214 69.6595 75.7297 67.4625 73.0214 67.4542L73.0178 68.6541ZM71.6172 68.6541H73.0196V67.4542H71.6172V68.6541ZM71.0172 64.6141V68.0541H72.2172V64.6141H71.0172ZM69.5699 64.0141H58.9489V65.2141H69.5699V64.0141ZM70.1699 68.0474V64.6141H68.9699V68.0474H70.1699ZM58.9505 68.6474H69.5699V67.4474H58.9505V68.6474ZM58.3489 64.6144L58.3505 68.0477L59.5505 68.0472L59.5489 64.6139L58.3489 64.6144ZM82.7238 61.9666H70.7331V63.1666H82.7238V61.9666ZM83.6688 61.0182C83.6682 61.5427 83.2441 61.966 82.7231 61.9666L82.7244 63.1666C83.9092 63.1653 84.8675 62.2038 84.8688 61.0195L83.6688 61.0182ZM83.6688 35.8152V61.0188H84.8688V35.8152H83.6688ZM82.7231 34.8674C83.2442 34.868 83.6682 35.2913 83.6688 35.8158L84.8688 35.8145C84.8675 34.6302 83.9092 33.6687 82.7244 33.6674L82.7231 34.8674ZM45.7151 34.8674H82.7238V33.6674H45.7151V34.8674ZM44.7701 35.8158C44.7707 35.2913 45.1948 34.868 45.7158 34.8674L45.7145 33.6674C44.5297 33.6687 43.5714 34.6302 43.5701 35.8145L44.7701 35.8158ZM44.7701 61.0188V35.8152H43.5701V61.0188H44.7701ZM45.7158 61.9666C45.1948 61.966 44.7707 61.5427 44.7701 61.0182L43.5701 61.0195C43.5714 62.2038 44.5297 63.1653 45.7145 63.1666L45.7158 61.9666ZM57.789 61.9666H45.7151V63.1666H57.789V61.9666ZM57.9287 61.9573C57.8546 61.9572 57.781 61.9622 57.7084 61.972L57.8696 63.1611C57.8885 63.1586 57.9075 63.1573 57.9267 63.1573L57.9287 61.9573ZM70.591 61.9573H57.9277V63.1573H70.591V61.9573ZM70.8138 61.972C70.7394 61.9619 70.664 61.957 70.5881 61.9573L70.594 63.1573C70.6137 63.1572 70.6332 63.1585 70.6524 63.1611L70.8138 61.972ZM75.0503 70.7489H53.2944V71.9489H75.0503V70.7489ZM73.0189 70.6951C73.6508 70.6959 74.2292 71.0526 74.5145 71.6188L75.5862 71.079C75.0976 70.1092 74.1058 69.4964 73.0203 69.4951L73.0189 70.6951ZM55.3251 70.6951H73.0196V69.4951H55.3251V70.6951ZM53.8302 71.6188C54.1154 71.0526 54.6939 70.6959 55.3258 70.6951L55.3244 69.4951C54.2389 69.4964 53.247 70.1092 52.7585 71.079L53.8302 71.6188ZM16.5195 72.4306H32.9922V71.2306H16.5195V72.4306ZM16.5128 72.4306H16.5195V71.2306H16.5128V72.4306ZM20.5731 67.8661C18.3023 67.8703 16.3539 69.4853 15.9237 71.717L17.102 71.9441C17.4237 70.275 18.8803 69.0693 20.5754 69.0661L20.5731 67.8661ZM28.9308 67.8661H20.5743V69.0661H28.9308V67.8661ZM33.5814 71.717C33.1512 69.4853 31.2028 67.8703 28.932 67.8661L28.9297 69.0661C30.6248 69.0693 32.0813 70.275 32.4031 71.9441L33.5814 71.717Z" fill="#F6F6F6" mask="url(#path-2-inside-1)"/>
</svg>
