<svg width="100" height="100" viewBox="0 0 100 100" fill="none" xmlns="http://www.w3.org/2000/svg">
<rect x="0.25" y="0.25" width="99.5" height="99.5" fill="#F6F6F6" stroke="#808080" stroke-width="0.5"/>
<mask id="path-2-inside-1" fill="white">
<path fill-rule="evenodd" clip-rule="evenodd" d="M55.7791 33.1751H55.7786C54.2274 33.1751 52.8219 32.6892 51.8897 31.8363V36.411C51.9186 36.5564 51.9435 36.7037 51.964 36.8526C52.08 37.6925 52.0498 38.5242 51.8897 39.2898V44.2501L72.9998 47.9754C73.1248 47.9951 73.2433 48.0456 73.3441 48.1225C73.4158 48.1771 73.4785 48.245 73.5282 48.3246L79.8841 58.4941C80.0148 58.7033 80.0363 58.9629 79.9418 59.1905C79.8473 59.4185 79.6482 59.5865 79.4078 59.6417L73.9511 60.8926V74.1527C73.9511 74.5083 73.7054 74.8168 73.3589 74.8962L51.1789 79.981C51.1222 79.9938 51.0652 80.0002 51.0083 80.0002C50.9668 80.0002 50.9255 79.9968 50.8847 79.9901L26.6931 76.1773C26.3223 76.1188 26.0491 75.7992 26.0491 75.4238V60.7888L20.6059 59.645C20.3621 59.5937 20.1586 59.4266 20.0609 59.1974C19.9633 58.9681 19.9839 58.7057 20.116 58.4944L26.464 48.3376C26.5761 48.1504 26.7673 48.0123 26.9997 47.9756L50.3642 44.2865V42.0769C49.4324 42.8856 48.0627 43.3447 46.5549 43.3447C44.0363 43.3447 41.7638 42.0819 40.624 40.049C39.3332 37.7466 38.8792 31.2591 38.8605 30.9841C38.8457 30.7643 38.9265 30.5488 39.0822 30.3931C39.2379 30.2374 39.4531 30.1561 39.6732 30.1714C39.9483 30.1901 46.4356 30.6439 48.7381 31.9349C49.3564 32.2815 49.9029 32.7286 50.3642 33.2561V28.6601C50.2773 28.0263 50.2762 27.3573 50.3693 26.6831C50.665 24.5414 51.8408 22.7489 53.5952 21.7654C55.8977 20.4743 62.3851 20.0205 62.6602 20.0018C62.882 19.9865 63.0956 20.0678 63.2511 20.2235C63.407 20.3794 63.4877 20.5947 63.4728 20.8145C63.4542 21.0896 63.0002 27.5771 61.7094 29.8795C60.5698 31.9122 58.2972 33.1751 55.7791 33.1751ZM50.3642 45.8307L31.304 48.8403L50.3642 52.8971V45.8307ZM69.0725 48.8313L51.8897 45.799V52.8257L69.0725 48.8313ZM52.8399 30.6347C52.3518 30.1466 52.0216 29.3971 51.8897 28.5442V27.1188C51.8897 27.0627 51.8836 27.0079 51.8721 26.9552C51.8748 26.934 51.8776 26.9128 51.8805 26.8915C52.1102 25.2273 53.0072 23.8438 54.3413 23.0958C55.7791 22.2896 59.6954 21.7929 61.8798 21.5949C61.682 23.779 61.1856 27.6946 60.379 29.1333C59.3388 30.9885 57.3209 31.6495 55.7791 31.6495H55.7787C54.574 31.6495 53.4753 31.2701 52.8399 30.6347ZM50.3642 36.5708V39.1204C50.2007 39.8033 49.9026 40.3956 49.4937 40.8045C48.8583 41.4399 47.7596 41.8193 46.5549 41.8193C45.0131 41.8193 42.9948 41.1582 41.9546 39.303C41.1485 37.8652 40.6518 33.9488 40.4537 31.7644C42.6377 31.9622 46.5534 32.4586 47.9922 33.2656C49.1928 33.9386 50.0394 35.1266 50.3642 36.5708ZM57.4286 63.1153L52.1972 54.3202L72.5233 49.5949L78.0229 58.394L57.4286 63.1153ZM44.8023 64.7297C44.8547 64.7406 44.9073 64.746 44.9593 64.746C45.2243 64.746 45.4754 64.6074 45.6147 64.3734L50.2456 56.588L50.2457 78.345L27.5746 74.772V61.1094L44.8023 64.7297ZM51.7711 56.5879L51.7711 78.2801L72.4255 73.5451V61.2426L57.2278 64.7266C56.9042 64.8004 56.5711 64.6577 56.4019 64.3731L51.7711 56.5879ZM26.9538 59.4202L21.9883 58.3767L27.4824 49.5862L49.8089 54.3384L44.5825 63.1246L26.9687 59.4232L26.9538 59.4202Z"/>
</mask>
<path fill-rule="evenodd" clip-rule="evenodd" d="M55.7791 33.1751H55.7786C54.2274 33.1751 52.8219 32.6892 51.8897 31.8363V36.411C51.9186 36.5564 51.9435 36.7037 51.964 36.8526C52.08 37.6925 52.0498 38.5242 51.8897 39.2898V44.2501L72.9998 47.9754C73.1248 47.9951 73.2433 48.0456 73.3441 48.1225C73.4158 48.1771 73.4785 48.245 73.5282 48.3246L79.8841 58.4941C80.0148 58.7033 80.0363 58.9629 79.9418 59.1905C79.8473 59.4185 79.6482 59.5865 79.4078 59.6417L73.9511 60.8926V74.1527C73.9511 74.5083 73.7054 74.8168 73.3589 74.8962L51.1789 79.981C51.1222 79.9938 51.0652 80.0002 51.0083 80.0002C50.9668 80.0002 50.9255 79.9968 50.8847 79.9901L26.6931 76.1773C26.3223 76.1188 26.0491 75.7992 26.0491 75.4238V60.7888L20.6059 59.645C20.3621 59.5937 20.1586 59.4266 20.0609 59.1974C19.9633 58.9681 19.9839 58.7057 20.116 58.4944L26.464 48.3376C26.5761 48.1504 26.7673 48.0123 26.9997 47.9756L50.3642 44.2865V42.0769C49.4324 42.8856 48.0627 43.3447 46.5549 43.3447C44.0363 43.3447 41.7638 42.0819 40.624 40.049C39.3332 37.7466 38.8792 31.2591 38.8605 30.9841C38.8457 30.7643 38.9265 30.5488 39.0822 30.3931C39.2379 30.2374 39.4531 30.1561 39.6732 30.1714C39.9483 30.1901 46.4356 30.6439 48.7381 31.9349C49.3564 32.2815 49.9029 32.7286 50.3642 33.2561V28.6601C50.2773 28.0263 50.2762 27.3573 50.3693 26.6831C50.665 24.5414 51.8408 22.7489 53.5952 21.7654C55.8977 20.4743 62.3851 20.0205 62.6602 20.0018C62.882 19.9865 63.0956 20.0678 63.2511 20.2235C63.407 20.3794 63.4877 20.5947 63.4728 20.8145C63.4542 21.0896 63.0002 27.5771 61.7094 29.8795C60.5698 31.9122 58.2972 33.1751 55.7791 33.1751ZM50.3642 45.8307L31.304 48.8403L50.3642 52.8971V45.8307ZM69.0725 48.8313L51.8897 45.799V52.8257L69.0725 48.8313ZM52.8399 30.6347C52.3518 30.1466 52.0216 29.3971 51.8897 28.5442V27.1188C51.8897 27.0627 51.8836 27.0079 51.8721 26.9552C51.8748 26.934 51.8776 26.9128 51.8805 26.8915C52.1102 25.2273 53.0072 23.8438 54.3413 23.0958C55.7791 22.2896 59.6954 21.7929 61.8798 21.5949C61.682 23.779 61.1856 27.6946 60.379 29.1333C59.3388 30.9885 57.3209 31.6495 55.7791 31.6495H55.7787C54.574 31.6495 53.4753 31.2701 52.8399 30.6347ZM50.3642 36.5708V39.1204C50.2007 39.8033 49.9026 40.3956 49.4937 40.8045C48.8583 41.4399 47.7596 41.8193 46.5549 41.8193C45.0131 41.8193 42.9948 41.1582 41.9546 39.303C41.1485 37.8652 40.6518 33.9488 40.4537 31.7644C42.6377 31.9622 46.5534 32.4586 47.9922 33.2656C49.1928 33.9386 50.0394 35.1266 50.3642 36.5708ZM57.4286 63.1153L52.1972 54.3202L72.5233 49.5949L78.0229 58.394L57.4286 63.1153ZM44.8023 64.7297C44.8547 64.7406 44.9073 64.746 44.9593 64.746C45.2243 64.746 45.4754 64.6074 45.6147 64.3734L50.2456 56.588L50.2457 78.345L27.5746 74.772V61.1094L44.8023 64.7297ZM51.7711 56.5879L51.7711 78.2801L72.4255 73.5451V61.2426L57.2278 64.7266C56.9042 64.8004 56.5711 64.6577 56.4019 64.3731L51.7711 56.5879ZM26.9538 59.4202L21.9883 58.3767L27.4824 49.5862L49.8089 54.3384L44.5825 63.1246L26.9687 59.4232L26.9538 59.4202Z" fill="#808080"/>
<path d="M51.8897 31.8363L52.1597 31.5412L51.4897 30.9283V31.8363H51.8897ZM51.8897 36.411H51.4897V36.4505L51.4974 36.4892L51.8897 36.411ZM51.964 36.8526L52.3603 36.7979L52.3603 36.7979L51.964 36.8526ZM51.8897 39.2898L51.4981 39.2079L51.4897 39.2484V39.2898H51.8897ZM51.8897 44.2501H51.4897V44.5856L51.8202 44.644L51.8897 44.2501ZM72.9998 47.9754L72.9303 48.3694L72.9376 48.3705L72.9998 47.9754ZM73.3441 48.1225L73.1016 48.4406L73.3441 48.1225ZM73.5282 48.3246L73.1889 48.5364L73.189 48.5366L73.5282 48.3246ZM79.8841 58.4941L80.2234 58.2822L80.2233 58.2821L79.8841 58.4941ZM79.9418 59.1905L80.3113 59.3438L80.3113 59.3438L79.9418 59.1905ZM79.4078 59.6417L79.4972 60.0316L79.4973 60.0316L79.4078 59.6417ZM73.9511 60.8926L73.8617 60.5028L73.5511 60.574V60.8926H73.9511ZM73.3589 74.8962L73.4482 75.2861H73.4482L73.3589 74.8962ZM51.1789 79.981L51.2673 80.3711L51.2683 80.3709L51.1789 79.981ZM50.8847 79.9901L50.9496 79.5954L50.947 79.595L50.8847 79.9901ZM26.6931 76.1773L26.6308 76.5724L26.6308 76.5724L26.6931 76.1773ZM26.0491 60.7888H26.4491V60.4642L26.1314 60.3974L26.0491 60.7888ZM20.6059 59.645L20.6882 59.2535L20.6882 59.2535L20.6059 59.645ZM20.0609 59.1974L19.6929 59.3541L19.6929 59.3541L20.0609 59.1974ZM20.116 58.4944L20.4552 58.7065L20.4552 58.7064L20.116 58.4944ZM26.464 48.3376L26.8033 48.5496L26.8072 48.5431L26.464 48.3376ZM26.9997 47.9756L26.9374 47.5805L26.9373 47.5805L26.9997 47.9756ZM50.3642 44.2865L50.4266 44.6816L50.7642 44.6283V44.2865H50.3642ZM50.3642 42.0769H50.7642V41.2L50.102 41.7748L50.3642 42.0769ZM40.624 40.049L40.9729 39.8534L40.9729 39.8534L40.624 40.049ZM38.8605 30.9841L38.4614 31.0111L38.4614 31.0112L38.8605 30.9841ZM39.0822 30.3931L38.7994 30.1102V30.1102L39.0822 30.3931ZM39.6732 30.1714L39.6455 30.5704L39.6461 30.5705L39.6732 30.1714ZM48.7381 31.9349L48.5425 32.2838L48.5425 32.2838L48.7381 31.9349ZM50.3642 33.2561L50.0632 33.5195L50.7642 34.321V33.2561H50.3642ZM50.3642 28.6601H50.7642V28.6328L50.7605 28.6057L50.3642 28.6601ZM50.3693 26.6831L50.7656 26.7378L50.7656 26.7378L50.3693 26.6831ZM53.5952 21.7654L53.7908 22.1143L53.7908 22.1143L53.5952 21.7654ZM62.6602 20.0018L62.6873 20.4009L62.6878 20.4009L62.6602 20.0018ZM63.2511 20.2235L62.9682 20.5063L62.9683 20.5064L63.2511 20.2235ZM63.4728 20.8145L63.8719 20.8416L63.8719 20.8415L63.4728 20.8145ZM61.7094 29.8795L62.0584 30.0751L62.0584 30.0751L61.7094 29.8795ZM50.3642 45.8307H50.7642V45.3626L50.3019 45.4356L50.3642 45.8307ZM31.304 48.8403L31.2416 48.4451L31.2207 49.2315L31.304 48.8403ZM50.3642 52.8971L50.281 53.2883L50.7642 53.3912V52.8971H50.3642ZM69.0725 48.8313L69.163 49.2209L69.142 48.4373L69.0725 48.8313ZM51.8897 45.799L51.9592 45.405L51.4897 45.3222V45.799H51.8897ZM51.8897 52.8257H51.4897V53.3293L51.9802 53.2153L51.8897 52.8257ZM51.8897 28.5442H51.4897V28.5749L51.4944 28.6053L51.8897 28.5442ZM52.8399 30.6347L53.1227 30.3518H53.1227L52.8399 30.6347ZM51.8721 26.9552L51.4753 26.9048L51.4666 26.9733L51.4813 27.0407L51.8721 26.9552ZM51.8805 26.8915L52.2767 26.9463L52.2768 26.9462L51.8805 26.8915ZM54.3413 23.0958L54.5369 23.4447L54.5369 23.4447L54.3413 23.0958ZM61.8798 21.5949L62.2782 21.631L62.3214 21.1532L61.8437 21.1965L61.8798 21.5949ZM60.379 29.1333L60.7279 29.3289L60.7279 29.3289L60.379 29.1333ZM50.3642 39.1204L50.7532 39.2135L50.7642 39.1676V39.1204H50.3642ZM50.3642 36.5708H50.7642V36.5264L50.7545 36.483L50.3642 36.5708ZM49.4937 40.8045L49.2109 40.5216L49.4937 40.8045ZM41.9546 39.303L41.6057 39.4986L41.6057 39.4986L41.9546 39.303ZM40.4537 31.7644L40.4898 31.3661L40.012 31.3228L40.0553 31.8006L40.4537 31.7644ZM47.9922 33.2656L47.7966 33.6145L47.7966 33.6145L47.9922 33.2656ZM52.1972 54.3202L52.1066 53.9306L51.5737 54.0545L51.8534 54.5247L52.1972 54.3202ZM57.4286 63.1153L57.0848 63.3198L57.2339 63.5704L57.518 63.5052L57.4286 63.1153ZM72.5233 49.5949L72.8625 49.3829L72.7111 49.1406L72.4327 49.2053L72.5233 49.5949ZM78.0229 58.394L78.1122 58.7839L78.6598 58.6584L78.3621 58.182L78.0229 58.394ZM44.8023 64.7297L44.72 65.1212L44.7206 65.1213L44.8023 64.7297ZM45.6147 64.3734L45.9584 64.578L45.9585 64.5779L45.6147 64.3734ZM50.2456 56.588H50.6456L50.6456 55.1331L49.9019 56.3836L50.2456 56.588ZM50.2457 78.345L50.1834 78.7402L50.6457 78.813V78.345H50.2457ZM27.5746 74.772H27.1746V75.1139L27.5123 75.1671L27.5746 74.772ZM27.5746 61.1094L27.6568 60.7179L27.1746 60.6166V61.1094H27.5746ZM51.7711 78.2801H51.3711V78.7822L51.8604 78.67L51.7711 78.2801ZM51.7711 56.5879L52.1149 56.3834L51.3711 55.133L51.3711 56.5879H51.7711ZM72.4255 73.5451L72.5149 73.935L72.8256 73.8638V73.5451H72.4255ZM72.4255 61.2426H72.8256V60.7405L72.3362 60.8527L72.4255 61.2426ZM57.2278 64.7266L57.3166 65.1166L57.3171 65.1165L57.2278 64.7266ZM56.4019 64.3731L56.7457 64.1687L56.7456 64.1686L56.4019 64.3731ZM21.9883 58.3767L21.6491 58.1647L21.3456 58.6504L21.9061 58.7682L21.9883 58.3767ZM26.9538 59.4202L26.8715 59.8117L26.8756 59.8125L26.9538 59.4202ZM27.4824 49.5862L27.5657 49.195L27.2917 49.1366L27.1432 49.3742L27.4824 49.5862ZM49.8089 54.3384L50.1526 54.5429L50.4379 54.0633L49.8921 53.9472L49.8089 54.3384ZM44.5825 63.1246L44.5003 63.5161L44.7801 63.5749L44.9263 63.3291L44.5825 63.1246ZM26.9687 59.4232L27.051 59.0317L27.0469 59.0309L26.9687 59.4232ZM55.7786 33.5751H55.7791V32.7751H55.7786V33.5751ZM51.6197 32.1315C52.6411 33.0659 54.1506 33.5751 55.7786 33.5751V32.7751C54.3042 32.7751 53.0027 32.3125 52.1597 31.5412L51.6197 32.1315ZM52.2897 36.411V31.8363H51.4897V36.411H52.2897ZM52.3603 36.7979C52.3386 36.6411 52.3125 36.4861 52.2819 36.3328L51.4974 36.4892C51.5248 36.6268 51.5483 36.7662 51.5678 36.9073L52.3603 36.7979ZM52.2812 39.3717C52.451 38.5599 52.4823 37.6818 52.3603 36.7979L51.5678 36.9073C51.6777 37.7031 51.6486 38.4886 51.4981 39.2079L52.2812 39.3717ZM52.2897 44.2501V39.2898H51.4897V44.2501H52.2897ZM51.8202 44.644L72.9303 48.3693L73.0694 47.5815L51.9592 43.8561L51.8202 44.644ZM73.5866 47.8043C73.433 47.6872 73.2525 47.6103 73.0621 47.5803L72.9376 48.3705C72.9971 48.3799 73.0537 48.404 73.1016 48.4406L73.5866 47.8043ZM73.8675 48.1127C73.7918 47.9915 73.696 47.8877 73.5866 47.8043L73.1016 48.4406C73.1356 48.4664 73.1653 48.4986 73.1889 48.5364L73.8675 48.1127ZM80.2233 58.2821L73.8674 48.1126L73.189 48.5366L79.5449 58.7061L80.2233 58.2821ZM80.3113 59.3438C80.4553 58.9966 80.4225 58.601 80.2234 58.2822L79.5449 58.706C79.6071 58.8056 79.6172 58.9291 79.5724 59.0373L80.3113 59.3438ZM79.4973 60.0316C79.8637 59.9475 80.1671 59.6914 80.3113 59.3438L79.5724 59.0372C79.5274 59.1456 79.4327 59.2256 79.3183 59.2518L79.4973 60.0316ZM74.0405 61.2825L79.4972 60.0316L79.3184 59.2518L73.8617 60.5028L74.0405 61.2825ZM74.3511 74.1527V60.8926H73.5511V74.1527H74.3511ZM73.4482 75.2861C73.9766 75.165 74.3511 74.6947 74.3511 74.1527H73.5511C73.5511 74.3219 73.4342 74.4686 73.2695 74.5064L73.4482 75.2861ZM51.2683 80.3709L73.4482 75.2861L73.2695 74.5064L51.0896 79.5911L51.2683 80.3709ZM51.0083 80.4002C51.0951 80.4002 51.1818 80.3905 51.2673 80.3711L51.0906 79.5909C51.0627 79.5972 51.0352 79.6002 51.0083 79.6002V80.4002ZM50.8198 80.3848C50.882 80.395 50.945 80.4002 51.0083 80.4002V79.6002C50.9886 79.6002 50.969 79.5986 50.9496 79.5954L50.8198 80.3848ZM26.6308 76.5724L50.8224 80.3852L50.947 79.595L26.7554 75.7822L26.6308 76.5724ZM25.6491 75.4238C25.6491 75.9961 26.0656 76.4833 26.6308 76.5724L26.7554 75.7822C26.579 75.7543 26.4491 75.6023 26.4491 75.4238H25.6491ZM25.6491 60.7888V75.4238H26.4491V60.7888H25.6491ZM20.5236 60.0364L25.9669 61.1803L26.1314 60.3974L20.6882 59.2535L20.5236 60.0364ZM19.6929 59.3541C19.8418 59.7035 20.152 59.9583 20.5237 60.0364L20.6882 59.2535C20.5722 59.2292 20.4754 59.1496 20.429 59.0406L19.6929 59.3541ZM19.7768 58.2824C19.5755 58.6044 19.5441 59.0045 19.6929 59.3541L20.429 59.0407C20.3826 58.9317 20.3923 58.807 20.4552 58.7065L19.7768 58.2824ZM26.1248 48.1256L19.7768 58.2824L20.4552 58.7064L26.8032 48.5496L26.1248 48.1256ZM26.8072 48.5431C26.861 48.4532 26.9517 48.3881 27.0621 48.3707L26.9373 47.5805C26.5829 47.6365 26.2912 47.8475 26.1208 48.1322L26.8072 48.5431ZM27.0621 48.3707L50.4266 44.6816L50.3019 43.8914L26.9374 47.5805L27.0621 48.3707ZM49.9642 42.0769V44.2865H50.7642V42.0769H49.9642ZM46.5549 43.7447C48.1378 43.7447 49.6073 43.2635 50.6264 42.3789L50.102 41.7748C49.2575 42.5078 47.9875 42.9447 46.5549 42.9447V43.7447ZM40.2751 40.2446C41.4924 42.4157 43.9059 43.7447 46.5549 43.7447V42.9447C44.1667 42.9447 42.0352 41.748 40.9729 39.8534L40.2751 40.2446ZM38.4614 31.0112C38.4711 31.1529 38.59 32.8547 38.8692 34.8128C39.0088 35.7916 39.1892 36.8404 39.4175 37.7932C39.6441 38.7386 39.9246 39.6195 40.2751 40.2446L40.9729 39.8534C40.678 39.3273 40.4177 38.534 40.1955 37.6068C39.9751 36.6871 39.7988 35.665 39.6612 34.6998C39.386 32.7698 39.2687 31.0903 39.2596 30.9569L38.4614 31.0112ZM38.7994 30.1102C38.562 30.3476 38.4388 30.6761 38.4614 31.0111L39.2596 30.957C39.2525 30.8525 39.291 30.75 39.3651 30.6759L38.7994 30.1102ZM39.7009 29.7723C39.3646 29.749 39.0364 29.8733 38.7994 30.1102L39.3651 30.6759C39.4395 30.6015 39.5417 30.5632 39.6455 30.5704L39.7009 29.7723ZM48.9338 31.586C48.3086 31.2355 47.4277 30.9549 46.4823 30.7283C45.5294 30.5 44.4807 30.3196 43.5018 30.18C41.5438 29.9009 39.8421 29.7819 39.7003 29.7723L39.6461 30.5705C39.7794 30.5795 41.4589 30.6969 43.3889 30.972C44.3541 31.1096 45.3761 31.2859 46.2958 31.5063C47.223 31.7285 48.0164 31.9888 48.5425 32.2838L48.9338 31.586ZM50.6653 32.9928C50.1745 32.4316 49.5926 31.9553 48.9338 31.586L48.5425 32.2838C49.1203 32.6077 49.6312 33.0256 50.0632 33.5195L50.6653 32.9928ZM49.9642 28.6601V33.2561H50.7642V28.6601H49.9642ZM49.9731 26.6284C49.8751 27.3382 49.876 28.0439 49.968 28.7144L50.7605 28.6057C50.6786 28.0087 50.6774 27.3764 50.7656 26.7378L49.9731 26.6284ZM53.3996 21.4165C51.5268 22.4663 50.2844 24.3734 49.9731 26.6284L50.7656 26.7378C51.0456 24.7094 52.1549 23.0314 53.7908 22.1143L53.3996 21.4165ZM62.6331 19.6028C62.4913 19.6124 60.7896 19.7313 58.8315 20.0105C57.8527 20.15 56.8039 20.3305 55.8511 20.5588C54.9057 20.7854 54.0247 21.0659 53.3996 21.4165L53.7908 22.1143C54.3169 21.8193 55.1103 21.559 56.0375 21.3368C56.9572 21.1164 57.9792 20.9401 58.9444 20.8025C60.8744 20.5273 62.554 20.41 62.6873 20.4009L62.6331 19.6028ZM63.5341 19.9408C63.2975 19.704 62.971 19.5793 62.6325 19.6028L62.6878 20.4009C62.793 20.3936 62.8936 20.4316 62.9682 20.5063L63.5341 19.9408ZM63.8719 20.8415C63.8946 20.5066 63.7715 20.1782 63.534 19.9407L62.9683 20.5064C63.0424 20.5805 63.0808 20.6829 63.0737 20.7875L63.8719 20.8415ZM62.0584 30.0751C62.4088 29.45 62.6893 28.569 62.9159 27.6237C63.1442 26.6708 63.3246 25.6221 63.4642 24.6432C63.7433 22.6851 63.8623 20.9834 63.8719 20.8416L63.0738 20.7874C63.0647 20.9207 62.9473 22.6003 62.6722 24.5303C62.5346 25.4955 62.3583 26.5175 62.1379 27.4372C61.9157 28.3644 61.6555 29.1578 61.3605 29.6839L62.0584 30.0751ZM55.7791 33.5751C58.4276 33.5751 60.8412 32.2461 62.0584 30.0751L61.3605 29.6839C60.2984 31.5784 58.1668 32.7751 55.7791 32.7751V33.5751ZM50.3019 45.4356L31.2416 48.4451L31.3664 49.2354L50.4266 46.2258L50.3019 45.4356ZM50.4475 52.5059L31.3873 48.449L31.2207 49.2315L50.281 53.2883L50.4475 52.5059ZM49.9642 45.8307V52.8971H50.7642V45.8307H49.9642ZM69.142 48.4373L51.9592 45.405L51.8201 46.1929L69.0029 49.2252L69.142 48.4373ZM52.2897 52.8257V45.799H51.4897V52.8257H52.2897ZM68.9819 48.4416L51.7991 52.4361L51.9802 53.2153L69.163 49.2209L68.9819 48.4416ZM51.4944 28.6053C51.6351 29.515 51.992 30.3525 52.557 30.9175L53.1227 30.3518C52.7117 29.9408 52.4081 29.2792 52.285 28.483L51.4944 28.6053ZM51.4897 27.1188V28.5442H52.2897V27.1188H51.4897ZM51.4813 27.0407C51.4867 27.0655 51.4897 27.0916 51.4897 27.1188H52.2897C52.2897 27.0337 52.2805 26.9504 52.2628 26.8698L51.4813 27.0407ZM51.4843 26.8368C51.4811 26.8595 51.4781 26.8822 51.4753 26.9048L52.2689 27.0056C52.2714 26.9858 52.274 26.966 52.2767 26.9463L51.4843 26.8368ZM54.1457 22.7469C52.6905 23.5627 51.7291 25.0626 51.4843 26.8369L52.2768 26.9462C52.4913 25.392 53.3239 24.1248 54.5369 23.4447L54.1457 22.7469ZM61.8437 21.1965C60.7448 21.2962 59.208 21.471 57.7618 21.7232C56.3365 21.9718 54.9324 22.3058 54.1456 22.7469L54.5369 23.4447C55.188 23.0796 56.461 22.7622 57.8993 22.5113C59.3168 22.2641 60.8304 22.0917 61.9159 21.9933L61.8437 21.1965ZM60.7279 29.3289C61.1692 28.5417 61.5032 27.1377 61.7518 25.7123C62.0039 24.2663 62.1787 22.7298 62.2782 21.631L61.4814 21.5588C61.3831 22.6442 61.2108 24.1575 60.9636 25.5749C60.7129 27.0131 60.3954 28.2861 60.0301 28.9377L60.7279 29.3289ZM55.7791 32.0495C57.4113 32.0495 59.5938 31.3515 60.7279 29.3289L60.0301 28.9377C59.0838 30.6254 57.2306 31.2495 55.7791 31.2495V32.0495ZM55.7787 32.0495H55.7791V31.2495H55.7787V32.0495ZM52.557 30.9175C53.2903 31.6508 54.5052 32.0495 55.7787 32.0495V31.2495C54.6428 31.2495 53.6604 30.8895 53.1227 30.3518L52.557 30.9175ZM50.7642 39.1204V36.5708H49.9642V39.1204H50.7642ZM49.7766 41.0873C50.2509 40.613 50.5775 39.9476 50.7532 39.2135L49.9752 39.0273C49.824 39.6589 49.5544 40.1781 49.2109 40.5216L49.7766 41.0873ZM46.5549 42.2193C47.8284 42.2193 49.0433 41.8206 49.7766 41.0873L49.2109 40.5216C48.6732 41.0593 47.6908 41.4193 46.5549 41.4193V42.2193ZM41.6057 39.4986C42.7398 41.5213 44.9228 42.2193 46.5549 42.2193V41.4193C45.1034 41.4193 43.2498 40.7952 42.3035 39.1073L41.6057 39.4986ZM40.0553 31.8006C40.155 32.8995 40.3299 34.4363 40.5821 35.8824C40.8307 37.3078 41.1646 38.7119 41.6057 39.4986L42.3035 39.1073C41.9385 38.4563 41.621 37.1833 41.3702 35.745C41.123 34.3274 40.9505 32.8138 40.8521 31.7283L40.0553 31.8006ZM48.1879 32.9167C47.4006 32.4752 45.9965 32.1411 44.5711 31.8925C43.125 31.6403 41.5885 31.4656 40.4898 31.3661L40.4176 32.1628C41.5029 32.2611 43.0162 32.4334 44.4337 32.6806C45.8719 32.9314 47.1449 33.249 47.7966 33.6145L48.1879 32.9167ZM50.7545 36.483C50.4072 34.9391 49.4968 33.6505 48.1878 32.9167L47.7966 33.6145C48.8888 34.2268 49.6716 35.3141 49.974 36.6586L50.7545 36.483ZM51.8534 54.5247L57.0848 63.3198L57.7724 62.9108L52.541 54.1158L51.8534 54.5247ZM72.4327 49.2053L52.1066 53.9306L52.2878 54.7099L72.6139 49.9845L72.4327 49.2053ZM78.3621 58.182L72.8625 49.3829L72.1841 49.8069L77.6837 58.606L78.3621 58.182ZM57.518 63.5052L78.1122 58.7839L77.9335 58.0041L57.3392 62.7254L57.518 63.5052ZM44.9593 64.346C44.9347 64.346 44.9094 64.3435 44.884 64.3382L44.7206 65.1213C44.7999 65.1378 44.8799 65.146 44.9593 65.146V64.346ZM45.271 64.1688C45.2049 64.2798 45.0855 64.346 44.9593 64.346V65.146C45.3632 65.146 45.7459 64.935 45.9584 64.578L45.271 64.1688ZM49.9019 56.3836L45.2709 64.1689L45.9585 64.5779L50.5894 56.7925L49.9019 56.3836ZM50.6457 78.345L50.6456 56.588H49.8456L49.8457 78.345H50.6457ZM27.5123 75.1671L50.1834 78.7402L50.3079 77.9499L27.6368 74.3769L27.5123 75.1671ZM27.1746 61.1094V74.772H27.9746V61.1094H27.1746ZM44.8846 64.3383L27.6568 60.7179L27.4923 61.5008L44.72 65.1212L44.8846 64.3383ZM52.1711 78.2801L52.1711 56.5879H51.3711L51.3711 78.2801H52.1711ZM72.3362 73.1552L51.6817 77.8903L51.8604 78.67L72.5149 73.935L72.3362 73.1552ZM72.0255 61.2426V73.5451H72.8256V61.2426H72.0255ZM57.3171 65.1165L72.5149 61.6324L72.3362 60.8527L57.1384 64.3367L57.3171 65.1165ZM56.058 64.5775C56.3162 65.0117 56.8244 65.2288 57.3166 65.1166L57.1389 64.3366C56.9841 64.3719 56.826 64.3037 56.7457 64.1687L56.058 64.5775ZM51.4273 56.7924L56.0581 64.5776L56.7456 64.1686L52.1149 56.3834L51.4273 56.7924ZM21.9061 58.7682L26.8715 59.8116L27.036 59.0287L22.0706 57.9853L21.9061 58.7682ZM27.1432 49.3742L21.6491 58.1647L22.3275 58.5887L27.8216 49.7982L27.1432 49.3742ZM49.8921 53.9472L27.5657 49.195L27.3991 49.9774L49.7256 54.7296L49.8921 53.9472ZM44.9263 63.3291L50.1526 54.5429L49.4651 54.1339L44.2387 62.9201L44.9263 63.3291ZM26.8865 59.8146L44.5003 63.5161L44.6648 62.7332L27.051 59.0317L26.8865 59.8146ZM26.8756 59.8125L26.8906 59.8155L27.0469 59.0309L27.0319 59.0279L26.8756 59.8125Z" fill="#F6F6F6" mask="url(#path-2-inside-1)"/>
</svg>
