<svg width="100" height="100" viewBox="0 0 100 100" fill="none" xmlns="http://www.w3.org/2000/svg">
<rect x="0.25" y="0.25" width="99.5" height="99.5" fill="#F6F6F6" stroke="#808080" stroke-width="0.5"/>
<mask id="path-2-inside-1" fill="white">
<path d="M69.9989 46.9959H60.2577C62.2079 44.7056 63.8982 42.1252 63.9081 40.075C63.9704 38.9541 63.6873 37.841 63.0972 36.886C62.507 35.931 61.6381 35.18 60.6077 34.7343C59.7076 34.4242 57.4973 34.0442 54.997 36.5745C52.5067 34.0342 50.2964 34.4042 49.4063 34.7143C48.3747 35.1575 47.5036 35.9059 46.91 36.8589C46.3164 37.8118 46.0288 38.9237 46.0859 40.045C46.0859 42.1052 47.7761 44.6956 49.7263 46.9959H33.4478L53.0652 28.0642C53.8504 27.3048 54.3024 26.2649 54.322 25.1726C54.3416 24.0804 53.9272 23.0249 53.1697 22.2378L51.2524 20.2517C50.4911 19.4699 49.4517 19.0203 48.3606 19.0008C47.2694 18.9813 46.2148 19.3935 45.426 20.1477L18.2516 46.3723C17.4697 47.1336 17.0201 48.1729 17.0007 49.2641C16.9812 50.3552 17.3934 51.4099 18.1476 52.1986L20.0643 54.1848C20.8257 54.9666 21.865 55.4162 22.9561 55.4357C24.0473 55.4552 25.102 55.043 25.8908 54.2888L31.994 48.3989V75.9996C31.9935 76.3938 32.0708 76.7842 32.2214 77.1484C32.372 77.5127 32.5929 77.8437 32.8717 78.1224C33.1504 78.4011 33.4813 78.6221 33.8456 78.7727C34.2099 78.9233 34.6003 79.0005 34.9944 79H67.9987C68.3928 79.0005 68.7832 78.9233 69.1475 78.7727C69.5118 78.6221 69.8427 78.4011 70.1214 78.1224C70.4002 77.8437 70.6212 77.5127 70.7717 77.1484C70.9223 76.7842 70.9996 76.3938 70.9991 75.9996V47.996C70.9983 47.731 70.8927 47.477 70.7053 47.2896C70.5179 47.1023 70.264 46.9966 69.9989 46.9959ZM46.8147 21.5868C47.2207 21.1988 47.7634 20.9868 48.3248 20.9969C48.8862 21.0069 49.421 21.2382 49.8127 21.6405L51.73 23.6267C52.1197 24.0316 52.333 24.5747 52.323 25.1366C52.313 25.6986 52.0805 26.2337 51.6766 26.6245L44.5665 33.4863L39.705 28.4488L46.8147 21.5868ZM38.2653 29.8379L43.1267 34.8755L33.0513 44.5986L28.1899 39.561L38.2653 29.8379ZM24.5019 52.8496C24.0965 53.2388 23.5536 53.4516 22.9918 53.4415C22.43 53.4314 21.895 53.1993 21.5039 52.7959L19.5866 50.8099C19.1987 50.4039 18.9867 49.8612 18.9967 49.2998C19.0068 48.7384 19.2381 48.2036 19.6403 47.8119L26.7505 40.9502L31.6122 45.9877L24.5019 52.8496ZM48.0861 40.055C48.0359 39.3482 48.1975 38.6424 48.5502 38.0279C48.9029 37.4133 49.4308 36.9178 50.0664 36.6045C51.6066 36.1845 52.8167 37.0446 54.2169 38.7048C54.3105 38.8218 54.4292 38.9163 54.5642 38.9812C54.6993 39.0461 54.8472 39.0798 54.997 39.0798C55.1468 39.0798 55.2948 39.0461 55.4298 38.9812C55.5648 38.9163 55.6835 38.8218 55.7771 38.7048C57.1873 36.9446 58.7075 36.1845 59.9376 36.6245C60.5721 36.9357 61.0988 37.4297 61.45 38.0429C61.8011 38.656 61.9606 39.3603 61.9079 40.065C61.8979 41.5452 60.2977 44.0755 57.5773 46.9959H52.3967C49.6863 44.0655 48.0861 41.5252 48.0861 40.055ZM56.9973 48.9961V65.6101L52.3227 64.0499C52.1173 63.9814 51.8953 63.9814 51.69 64.0499L46.996 65.6116V48.9961H56.9973ZM68.9988 75.9996C68.998 76.2646 68.8924 76.5186 68.705 76.706C68.5176 76.8934 68.2637 76.999 67.9987 76.9997H34.9944C34.7294 76.999 34.4755 76.8934 34.2881 76.706C34.1007 76.5186 33.9951 76.2646 33.9943 75.9996V48.9961H44.9957V65.6116C44.9989 65.9273 45.0763 66.2379 45.2215 66.5183C45.3668 66.7987 45.576 67.041 45.8322 67.2257C46.0883 67.4103 46.3843 67.5322 46.6962 67.5815C47.0081 67.6307 47.3273 67.606 47.6279 67.5092L52.0054 66.0525L56.3644 67.5073C56.665 67.6043 56.9842 67.6293 57.2963 67.5802C57.6083 67.5311 57.9044 67.4092 58.1607 67.2246C58.417 67.0399 58.6263 66.7976 58.7717 66.5171C58.917 66.2367 58.9944 65.9259 58.9975 65.6101V48.9961H68.9988V75.9996ZM65.5609 35.4034C65.9717 35.7882 66.5134 36.0027 67.0763 36.0035C67.6392 36.0043 68.1815 35.7914 68.5935 35.4078C71.3565 32.8215 75.9944 27.9756 75.9997 24.5764C76.0639 23.4554 75.7815 22.3419 75.1909 21.387C74.6003 20.432 73.7301 19.682 72.6985 19.2388C71.8039 18.9233 69.5927 18.5434 67.0972 21.0779C64.6068 18.5346 62.3935 18.912 61.5017 19.2227C60.4688 19.663 59.5965 20.4105 59.0031 21.3638C58.4097 22.317 58.124 23.4298 58.1849 24.551C58.18 27.9527 62.8046 32.8102 65.5609 35.4034ZM62.161 21.1115C63.702 20.6915 64.9072 21.5527 66.3139 23.2109C66.4081 23.327 66.5271 23.4207 66.6621 23.4851C66.7971 23.5495 66.9447 23.583 67.0943 23.5832C67.2439 23.5834 67.3916 23.5502 67.5268 23.4862C67.6619 23.4221 67.7811 23.3287 67.8757 23.2128C69.2869 21.4519 70.8047 20.6915 72.0334 21.1251C72.668 21.4377 73.1944 21.9332 73.5448 22.5478C73.8952 23.1623 74.0536 23.8676 73.9995 24.573C73.9966 26.4487 71.4014 30.0405 67.2261 33.9463C67.1866 33.9843 67.1339 34.0056 67.0791 34.0056C67.0243 34.0056 66.9716 33.9843 66.9321 33.9463C62.7675 30.0302 60.1823 26.4311 60.1852 24.554C60.1331 23.8484 60.2934 23.1434 60.6456 22.5298C60.9977 21.9162 61.5256 21.422 62.161 21.111V21.1115Z"/>
</mask>
<path d="M69.9989 46.9959H60.2577C62.2079 44.7056 63.8982 42.1252 63.9081 40.075C63.9704 38.9541 63.6873 37.841 63.0972 36.886C62.507 35.931 61.6381 35.18 60.6077 34.7343C59.7076 34.4242 57.4973 34.0442 54.997 36.5745C52.5067 34.0342 50.2964 34.4042 49.4063 34.7143C48.3747 35.1575 47.5036 35.9059 46.91 36.8589C46.3164 37.8118 46.0288 38.9237 46.0859 40.045C46.0859 42.1052 47.7761 44.6956 49.7263 46.9959H33.4478L53.0652 28.0642C53.8504 27.3048 54.3024 26.2649 54.322 25.1726C54.3416 24.0804 53.9272 23.0249 53.1697 22.2378L51.2524 20.2517C50.4911 19.4699 49.4517 19.0203 48.3606 19.0008C47.2694 18.9813 46.2148 19.3935 45.426 20.1477L18.2516 46.3723C17.4697 47.1336 17.0201 48.1729 17.0007 49.2641C16.9812 50.3552 17.3934 51.4099 18.1476 52.1986L20.0643 54.1848C20.8257 54.9666 21.865 55.4162 22.9561 55.4357C24.0473 55.4552 25.102 55.043 25.8908 54.2888L31.994 48.3989V75.9996C31.9935 76.3938 32.0708 76.7842 32.2214 77.1484C32.372 77.5127 32.5929 77.8437 32.8717 78.1224C33.1504 78.4011 33.4813 78.6221 33.8456 78.7727C34.2099 78.9233 34.6003 79.0005 34.9944 79H67.9987C68.3928 79.0005 68.7832 78.9233 69.1475 78.7727C69.5118 78.6221 69.8427 78.4011 70.1214 78.1224C70.4002 77.8437 70.6212 77.5127 70.7717 77.1484C70.9223 76.7842 70.9996 76.3938 70.9991 75.9996V47.996C70.9983 47.731 70.8927 47.477 70.7053 47.2896C70.5179 47.1023 70.264 46.9966 69.9989 46.9959ZM46.8147 21.5868C47.2207 21.1988 47.7634 20.9868 48.3248 20.9969C48.8862 21.0069 49.421 21.2382 49.8127 21.6405L51.73 23.6267C52.1197 24.0316 52.333 24.5747 52.323 25.1366C52.313 25.6986 52.0805 26.2337 51.6766 26.6245L44.5665 33.4863L39.705 28.4488L46.8147 21.5868ZM38.2653 29.8379L43.1267 34.8755L33.0513 44.5986L28.1899 39.561L38.2653 29.8379ZM24.5019 52.8496C24.0965 53.2388 23.5536 53.4516 22.9918 53.4415C22.43 53.4314 21.895 53.1993 21.5039 52.7959L19.5866 50.8099C19.1987 50.4039 18.9867 49.8612 18.9967 49.2998C19.0068 48.7384 19.2381 48.2036 19.6403 47.8119L26.7505 40.9502L31.6122 45.9877L24.5019 52.8496ZM48.0861 40.055C48.0359 39.3482 48.1975 38.6424 48.5502 38.0279C48.9029 37.4133 49.4308 36.9178 50.0664 36.6045C51.6066 36.1845 52.8167 37.0446 54.2169 38.7048C54.3105 38.8218 54.4292 38.9163 54.5642 38.9812C54.6993 39.0461 54.8472 39.0798 54.997 39.0798C55.1468 39.0798 55.2948 39.0461 55.4298 38.9812C55.5648 38.9163 55.6835 38.8218 55.7771 38.7048C57.1873 36.9446 58.7075 36.1845 59.9376 36.6245C60.5721 36.9357 61.0988 37.4297 61.45 38.0429C61.8011 38.656 61.9606 39.3603 61.9079 40.065C61.8979 41.5452 60.2977 44.0755 57.5773 46.9959H52.3967C49.6863 44.0655 48.0861 41.5252 48.0861 40.055ZM56.9973 48.9961V65.6101L52.3227 64.0499C52.1173 63.9814 51.8953 63.9814 51.69 64.0499L46.996 65.6116V48.9961H56.9973ZM68.9988 75.9996C68.998 76.2646 68.8924 76.5186 68.705 76.706C68.5176 76.8934 68.2637 76.999 67.9987 76.9997H34.9944C34.7294 76.999 34.4755 76.8934 34.2881 76.706C34.1007 76.5186 33.9951 76.2646 33.9943 75.9996V48.9961H44.9957V65.6116C44.9989 65.9273 45.0763 66.2379 45.2215 66.5183C45.3668 66.7987 45.576 67.041 45.8322 67.2257C46.0883 67.4103 46.3843 67.5322 46.6962 67.5815C47.0081 67.6307 47.3273 67.606 47.6279 67.5092L52.0054 66.0525L56.3644 67.5073C56.665 67.6043 56.9842 67.6293 57.2963 67.5802C57.6083 67.5311 57.9044 67.4092 58.1607 67.2246C58.417 67.0399 58.6263 66.7976 58.7717 66.5171C58.917 66.2367 58.9944 65.9259 58.9975 65.6101V48.9961H68.9988V75.9996ZM65.5609 35.4034C65.9717 35.7882 66.5134 36.0027 67.0763 36.0035C67.6392 36.0043 68.1815 35.7914 68.5935 35.4078C71.3565 32.8215 75.9944 27.9756 75.9997 24.5764C76.0639 23.4554 75.7815 22.3419 75.1909 21.387C74.6003 20.432 73.7301 19.682 72.6985 19.2388C71.8039 18.9233 69.5927 18.5434 67.0972 21.0779C64.6068 18.5346 62.3935 18.912 61.5017 19.2227C60.4688 19.663 59.5965 20.4105 59.0031 21.3638C58.4097 22.317 58.124 23.4298 58.1849 24.551C58.18 27.9527 62.8046 32.8102 65.5609 35.4034ZM62.161 21.1115C63.702 20.6915 64.9072 21.5527 66.3139 23.2109C66.4081 23.327 66.5271 23.4207 66.6621 23.4851C66.7971 23.5495 66.9447 23.583 67.0943 23.5832C67.2439 23.5834 67.3916 23.5502 67.5268 23.4862C67.6619 23.4221 67.7811 23.3287 67.8757 23.2128C69.2869 21.4519 70.8047 20.6915 72.0334 21.1251C72.668 21.4377 73.1944 21.9332 73.5448 22.5478C73.8952 23.1623 74.0536 23.8676 73.9995 24.573C73.9966 26.4487 71.4014 30.0405 67.2261 33.9463C67.1866 33.9843 67.1339 34.0056 67.0791 34.0056C67.0243 34.0056 66.9716 33.9843 66.9321 33.9463C62.7675 30.0302 60.1823 26.4311 60.1852 24.554C60.1331 23.8484 60.2934 23.1434 60.6456 22.5298C60.9977 21.9162 61.5256 21.422 62.161 21.111V21.1115Z" fill="#808080" stroke="#F6F6F6" stroke-width="1.2" mask="url(#path-2-inside-1)"/>
</svg>
