<svg width="100" height="100" viewBox="0 0 100 100" fill="none" xmlns="http://www.w3.org/2000/svg">
<rect x="0.25" y="0.25" width="99.5" height="99.5" fill="#F6F6F6" stroke="#808080" stroke-width="0.5"/>
<path d="M67.1316 38.6176V38.8676H67.3816H76.7605H76.7606H76.7606H76.7606H76.7607H76.7607H76.7607H76.7607H76.7608H76.7608H76.7608H76.7609H76.7609H76.7609H76.761H76.761H76.761H76.7611H76.7611H76.7611H76.7612H76.7612C79.2079 38.8676 81.1987 40.8585 81.1987 43.3051V62.9926C81.1987 65.4392 79.2079 67.4301 76.7612 67.4301H76.7612H76.7612H76.7611H76.7611H76.7611H76.761H76.761H76.761H76.761H76.7609H76.7609H76.7609H76.7608H76.7608H76.7608H76.7607H76.7607H76.7607H76.7607H76.7606H76.7606H76.7606H76.7605H76.7605H76.7605H76.7604H76.7604H76.7604H76.7603H76.7603H67.3816H67.1316V67.6801V69.5589C67.1316 74.0755 63.4569 77.7501 58.9403 77.7501H36.4412C31.9246 77.7501 28.25 74.0755 28.25 69.5589V33.932C28.25 32.5195 29.3999 31.3695 30.8125 31.3695H64.5709C65.9764 31.3695 67.122 32.508 67.1333 33.9109C67.1322 33.9207 67.1316 33.9308 67.1316 33.9414V38.6176ZM67.1453 33.8577L67.1452 33.858L67.1453 33.8577ZM74.8844 61.3658H75.1344V61.1158V45.182V44.932H74.8844H67.3816H67.1316V45.182V61.1158V61.3658H67.3816H74.8844ZM65.7575 33.9273L65.7575 33.926C65.7539 33.2733 65.2246 32.7445 64.5709 32.7445H30.8125C30.1569 32.7445 29.625 33.2764 29.625 33.932V69.5589C29.625 73.3176 32.6826 76.3751 36.4412 76.3751H58.9403C62.699 76.3751 65.7566 73.3176 65.7566 69.5589V33.9492C65.7572 33.9421 65.7575 33.9348 65.7575 33.9273ZM67.1316 65.8051V66.0551H67.3816H76.7605H76.7606H76.7606H76.7606H76.7607H76.7607H76.7607H76.7607H76.7608H76.7608H76.7608H76.7609H76.7609H76.7609H76.761H76.761H76.761H76.7611H76.7611H76.7611H76.7612H76.7612C78.4499 66.0551 79.8237 64.6813 79.8237 62.9926V43.3051C79.8237 41.6164 78.4499 40.2426 76.7612 40.2426H76.7612H76.7612H76.7611H76.7611H76.7611H76.761H76.761H76.761H76.761H76.7609H76.7609H76.7609H76.7608H76.7608H76.7608H76.7607H76.7607H76.7607H76.7607H76.7606H76.7606H76.7606H76.7605H76.7605H76.7605H76.7604H76.7604H76.7604H76.7603H76.7603H67.3816H67.1316V40.4926V43.307V43.557H67.3816H75.8219C76.2022 43.557 76.5094 43.8641 76.5094 44.2445V62.0533C76.5094 62.4336 76.2022 62.7408 75.8219 62.7408H67.3816H67.1316V62.9908V65.8051Z" fill="#808080" stroke="#F6F6F6" stroke-width="0.5"/>
<path d="M37.7741 19.5075L37.774 19.5074L37.7672 19.5123C37.6636 19.5875 37.3003 19.8913 37.1792 20.5138C37.058 21.1367 37.1893 22.0277 37.9692 23.2565L37.9693 23.2566C38.9734 24.8371 39.1305 26.1042 38.9425 27.0357C38.7532 27.9732 38.2093 28.5991 37.7635 28.8881C37.6474 28.9626 37.5184 28.9981 37.39 28.9981C37.1638 28.9981 36.9434 28.8873 36.8113 28.6846C36.6053 28.3657 36.6966 27.9399 37.0153 27.7327L37.0155 27.733L37.0251 27.726C37.1164 27.6603 37.4779 27.3625 37.5997 26.7426C37.7216 26.1217 37.5932 25.2286 36.8089 23.9935C35.8047 22.412 35.6476 21.1444 35.8356 20.2126C36.0249 19.2748 36.569 18.6488 37.0148 18.3599C37.3328 18.1547 37.7586 18.2449 37.9668 18.5636C38.1701 18.8795 38.0831 19.2988 37.7741 19.5075Z" fill="#808080" stroke="#F6F6F6" stroke-width="0.5"/>
<path d="M48.081 19.5075L48.0809 19.5074L48.0741 19.5123C47.9705 19.5875 47.6072 19.8913 47.486 20.5138C47.3648 21.1367 47.4961 22.0277 48.2761 23.2565L48.2762 23.2566C49.2803 24.8371 49.4374 26.1042 49.2494 27.0357C49.0601 27.9732 48.5162 28.5991 48.0704 28.8881C47.9543 28.9626 47.8253 28.9981 47.6969 28.9981C47.4707 28.9981 47.2502 28.8873 47.1182 28.6846C46.9122 28.3657 47.0035 27.9399 47.3222 27.7327L47.3224 27.733L47.332 27.726C47.4233 27.6603 47.7848 27.3625 47.9066 26.7426C48.0285 26.1217 47.9001 25.2286 47.1157 23.9935C46.1116 22.412 45.9545 21.1444 46.1425 20.2126C46.3318 19.2749 46.8758 18.6489 47.3216 18.36C47.6406 18.1546 48.0655 18.245 48.2737 18.5636C48.477 18.8795 48.39 19.2988 48.081 19.5075Z" fill="#808080" stroke="#F6F6F6" stroke-width="0.5"/>
<path d="M58.3888 19.5075L58.3887 19.5074L58.3826 19.5119C58.2777 19.5875 57.9145 19.8914 57.7935 20.5138C57.6724 21.1367 57.804 22.0278 58.5839 23.2565L58.584 23.2566C59.5881 24.8371 59.7452 26.1042 59.5572 27.0357C59.3679 27.9732 58.824 28.5991 58.3782 28.8881C58.2621 28.9626 58.1331 28.9981 58.0047 28.9981C57.7785 28.9981 57.5581 28.8873 57.426 28.6846C57.22 28.3657 57.3113 27.9399 57.63 27.7327L57.6302 27.733L57.6398 27.726C57.7311 27.6603 58.0926 27.3625 58.2144 26.7426C58.3363 26.1217 58.2079 25.2286 57.4236 23.9935C56.4194 22.412 56.2623 21.1444 56.4503 20.2126C56.6396 19.2748 57.1837 18.6488 57.6295 18.3599C57.9475 18.1547 58.3733 18.2449 58.5815 18.5636C58.7849 18.8795 58.6978 19.2988 58.3888 19.5075Z" fill="#808080" stroke="#F6F6F6" stroke-width="0.5"/>
<path d="M43.8541 51.8552C43.8396 51.8486 43.8253 51.8419 43.811 51.8351C43.7595 51.8107 43.7083 51.7865 43.6525 51.7755L43.1535 52.0662C43.1537 52.0659 43.1536 52.0661 43.1532 52.0666C43.1527 52.0672 43.1518 52.0683 43.1508 52.0694M43.8541 51.8552L43.7483 52.0817C43.7488 52.0819 43.7493 52.0822 43.7498 52.0824M43.8541 51.8552L43.7513 52.0831C43.7508 52.0828 43.7503 52.0826 43.7498 52.0824M43.8541 51.8552C43.8712 51.8632 43.8891 51.8688 43.9071 51.8745C43.9333 51.8828 43.9595 51.8911 43.9834 51.9067M43.7498 52.0824C43.7216 52.0696 43.7001 52.0595 43.6829 52.0515C43.6442 52.0332 43.6275 52.0254 43.6041 52.0207L43.6027 52.0205L43.6027 52.0205C43.599 52.0197 43.59 52.0185 43.5674 52.019C43.5659 52.019 43.561 52.0192 43.554 52.0194C43.5327 52.0202 43.4922 52.0217 43.4725 52.0217C43.4528 52.0217 43.4123 52.0202 43.3909 52.0194C43.384 52.0192 43.3791 52.019 43.3776 52.019C43.355 52.0185 43.346 52.0197 43.3423 52.0205L43.3422 52.0205C43.3198 52.025 43.3044 52.0323 43.2684 52.0493C43.2511 52.0574 43.229 52.0679 43.199 52.0813L43.1985 52.0815C43.1763 52.0915 43.1558 52.0986 43.1405 52.1036L43.1197 52.1102L43.1049 52.1148C43.1036 52.1153 43.1024 52.1156 43.1013 52.116M43.7498 52.0824C43.7714 52.0924 43.7912 52.0995 43.8063 52.1046C43.8152 52.1077 43.8285 52.1119 43.8364 52.1144C43.8391 52.1153 43.8412 52.1159 43.8423 52.1163C43.8435 52.1167 43.8446 52.117 43.8456 52.1174M43.1013 52.116C43.1173 52.1045 43.1295 52.0929 43.1383 52.0837C43.1432 52.0785 43.147 52.0741 43.1494 52.0712L43.1508 52.0694M43.1013 52.116C43.0988 52.1178 43.0963 52.1195 43.0937 52.1213L43.0921 52.1223M43.1013 52.116C43.0951 52.1181 43.0926 52.1191 43.0926 52.1191C43.0926 52.1191 43.0959 52.1176 43.1002 52.1147C43.1186 52.1025 43.1321 52.0898 43.1412 52.0802C43.1456 52.0756 43.1489 52.0717 43.1508 52.0694M43.1508 52.0694L43.0921 52.1223M43.0921 52.1223C43.0921 52.1223 43.092 52.1224 43.0918 52.1225L43.0918 52.1225L43.0921 52.1223ZM43.0921 52.1223C43.0921 52.1223 43.0869 52.1262 43.0728 52.1415M43.0921 52.1223L43.0728 52.1415M43.8456 52.1174L43.7915 52.0662L43.7918 52.0666C43.7923 52.0672 43.7932 52.0682 43.7941 52.0694M43.8456 52.1174C43.8487 52.1184 43.8509 52.1192 43.8524 52.1197C43.8533 52.1201 43.854 52.1203 43.8544 52.1205C43.8547 52.1206 43.8549 52.1207 43.8549 52.1207C43.8549 52.1207 43.8547 52.1206 43.8544 52.1204C43.854 52.1202 43.8534 52.1199 43.8525 52.1195C43.8511 52.1187 43.8492 52.1176 43.847 52.1162L43.9834 51.9067M43.8456 52.1174C43.8286 52.1054 43.8158 52.0933 43.8067 52.0837C43.8018 52.0785 43.798 52.0741 43.7956 52.0712L43.7941 52.0694M43.8456 52.1174C43.8474 52.1187 43.8494 52.12 43.8513 52.1213L43.8513 52.1213L43.8531 52.1225C43.853 52.1224 43.8586 52.1261 43.8758 52.1446C43.8816 52.1509 43.8864 52.1562 43.8923 52.1628C43.896 52.1669 43.9002 52.1716 43.9054 52.1773C43.9168 52.1899 43.9311 52.2054 43.9472 52.2213M43.8456 52.1174L43.9472 52.2213M43.9834 51.9067L43.8448 52.1147C43.8264 52.1025 43.8128 52.0898 43.8038 52.0802C43.7994 52.0756 43.7961 52.0717 43.7941 52.0694M43.9834 51.9067C43.9848 51.9077 43.9858 51.9088 43.9867 51.91C43.9876 51.9112 43.9886 51.9123 43.99 51.9133C44.0243 51.9357 44.052 51.9665 44.0799 51.9975C44.0939 52.0132 44.1081 52.0288 44.1231 52.0436C44.137 52.0574 44.1516 52.0706 44.1663 52.0838C44.1983 52.1126 44.2303 52.1413 44.2534 52.1767M43.7941 52.0694L44.2534 52.1767M44.2534 52.1767C44.2544 52.1781 44.2555 52.1791 44.2567 52.18C44.2579 52.1809 44.2591 52.1819 44.26 52.1833L46.115 55.0369L46.0541 55.1314L46.2644 55.2667L46.474 55.1305L46.4127 55.0362L50.6547 48.4445C50.6559 48.442 50.658 48.4404 50.6601 48.4387C50.6611 48.4379 50.6622 48.437 50.6631 48.4361C50.6895 48.3962 50.7252 48.3636 50.7613 48.3306C50.7752 48.3178 50.7892 48.305 50.8028 48.2917M44.2534 52.1767L50.8028 48.2917M43.9472 52.2213C43.9626 52.2366 43.9777 52.2503 43.9898 52.2613C43.9937 52.2649 43.9973 52.2681 44.0006 52.271C44.0086 52.2782 44.0149 52.2839 44.0216 52.2901C44.0302 52.2981 44.0357 52.3037 44.0396 52.308C44.0417 52.3103 44.0429 52.3119 44.0436 52.3128C44.0442 52.3135 44.0443 52.3138 44.0443 52.3136L44.0442 52.3136L44.0454 52.3154C44.0511 52.324 44.057 52.3316 44.0626 52.3383M43.9472 52.2213L60.5531 62.0134C60.553 62.0131 60.553 62.0128 60.553 62.0126C60.5492 61.9686 60.5397 61.9239 60.5237 61.8712C60.5082 61.8205 60.4956 61.7862 60.4799 61.7559L60.4798 61.7556C60.4686 61.7339 60.4612 61.7142 60.4564 61.7C60.4535 61.6915 60.4507 61.6823 60.4489 61.6763M44.0626 52.3383L46.0548 55.403L46.2654 55.727L46.4746 55.402L50.8504 48.6024M44.0626 52.3383L44.0504 52.3195L44.26 52.1833L44.052 52.322C44.0642 52.3404 44.0769 52.3539 44.0865 52.363C44.0911 52.3673 44.095 52.3706 44.0973 52.3726L44.0956 52.3711C44.0926 52.3687 44.0882 52.3649 44.083 52.36C44.077 52.3543 44.0699 52.3471 44.0626 52.3383ZM50.8504 48.6024L50.8577 48.595L50.8717 48.5739C50.8748 48.5691 50.8821 48.56 50.9012 48.5418C50.9098 48.5336 50.9186 48.5254 50.9301 48.515L50.9343 48.5111C50.9463 48.5002 50.9609 48.4868 50.9758 48.4722M50.8504 48.6024L50.8649 48.5798L50.8696 48.5726L50.8722 48.5684L50.8783 48.5563C50.8754 48.562 50.8725 48.5674 50.8694 48.5725C50.8679 48.575 50.8664 48.5774 50.8648 48.5798C50.8561 48.5932 50.8471 48.6041 50.8394 48.6124C50.8305 48.6219 50.8233 48.6281 50.82 48.6308L50.8162 48.634C50.8152 48.6348 50.8174 48.633 50.8184 48.6322C50.8212 48.6299 50.8299 48.6229 50.8399 48.6129L50.8504 48.6024ZM50.9758 48.4722C50.9917 48.4573 51.0055 48.4428 51.0163 48.4311L51.0322 48.4138L51.0448 48.4002C51.0559 48.3883 51.0608 48.3841 51.0617 48.3833M50.9758 48.4722C50.9765 48.4716 50.9772 48.4709 50.9779 48.4702L50.8028 48.2917M50.9758 48.4722C50.975 48.473 50.9742 48.4737 50.9734 48.4745L50.8028 48.2917M51.0617 48.3833L51.0682 48.3792L51.0756 48.3736C51.0766 48.3729 51.0776 48.3721 51.0786 48.3714M51.0617 48.3833C51.0618 48.3832 51.0618 48.3832 51.0618 48.3832C51.0618 48.3832 51.0613 48.3836 51.0604 48.3842L51.0617 48.3833ZM51.0786 48.3714C51.0793 48.3711 51.0801 48.3708 51.0809 48.3706L51.0959 48.3658L51.1163 48.3593C51.1312 48.3544 51.1508 48.3476 51.1721 48.3383M51.0786 48.3714C51.0772 48.3718 51.0759 48.3722 51.0749 48.3726C51.0727 48.3734 51.0711 48.374 51.0699 48.3744L51.0647 48.3779L51.0646 48.3777C51.0663 48.3766 51.068 48.3756 51.0696 48.3745C51.0684 48.375 51.0679 48.3752 51.0679 48.3752C51.0679 48.3752 51.0701 48.3742 51.0732 48.3722C51.0735 48.372 51.0738 48.3718 51.0741 48.3716C51.0743 48.3715 51.0744 48.3714 51.0746 48.3713C51.0889 48.3617 51.1 48.352 51.1082 48.3439C51.1131 48.3391 51.1169 48.3349 51.1196 48.3318L51.1245 48.3261L51.1232 48.3276C51.1219 48.3292 51.1192 48.3326 51.1155 48.3367C51.1087 48.3444 51.0963 48.3576 51.0786 48.3714ZM51.1721 48.3383C51.2018 48.3255 51.2237 48.3155 51.2407 48.3078C51.2753 48.292 51.2903 48.2852 51.3115 48.2811L51.3115 48.2811L51.3136 48.2806C51.3176 48.2798 51.3268 48.2786 51.3494 48.2788C51.3597 48.279 51.3702 48.2793 51.3841 48.2798L51.3886 48.28C51.4036 48.2805 51.4225 48.2811 51.4422 48.2811C51.4621 48.2811 51.481 48.2805 51.4961 48.28L51.5009 48.2798C51.5148 48.2793 51.5252 48.279 51.5355 48.2788C51.5577 48.2786 51.5674 48.2798 51.5724 48.2808L51.5724 48.2808L51.5751 48.2813C51.5968 48.2855 51.6123 48.2926 51.6492 48.3096C51.6656 48.3171 51.6861 48.3266 51.7132 48.3386M51.1721 48.3383C51.1724 48.3382 51.1727 48.3381 51.173 48.3379L51.0728 48.1089L51.1721 48.3383ZM51.7132 48.3386C51.7346 48.3484 51.7542 48.3556 51.7696 48.3608C51.7798 48.3642 51.7928 48.3683 51.8011 48.3709C51.8038 48.3718 51.806 48.3725 51.8074 48.3729C51.8085 48.3733 51.8095 48.3736 51.8104 48.3739L51.8161 48.3781L51.8235 48.3829C51.8235 48.3829 51.8287 48.3867 51.8435 48.4025C51.8491 48.4084 51.8534 48.4131 51.8587 48.419C51.8625 48.4232 51.8669 48.4279 51.8726 48.4341C51.8838 48.4463 51.898 48.4614 51.9142 48.4769M51.7132 48.3386C51.7139 48.3389 51.7146 48.3392 51.7153 48.3395L51.8162 48.1108M51.7132 48.3386C51.7122 48.3381 51.7112 48.3377 51.7103 48.3372L51.8162 48.1108M51.9142 48.4769C51.9286 48.4909 51.9605 48.52 51.9774 48.5354C51.9831 48.5406 51.9871 48.5443 51.9881 48.5452C52.0066 48.5628 52.0121 48.5702 52.0134 48.5722L52.0277 48.5943L52.0358 48.6024M51.9142 48.4769C51.9145 48.4772 51.9149 48.4776 51.9152 48.4779L52.0881 48.2973M51.9142 48.4769C51.9138 48.4766 51.9135 48.4762 51.9132 48.4759L52.0881 48.2973M52.0358 48.6024L60.4489 61.6763M52.0358 48.6024L52.0463 48.6129C52.0563 48.6228 52.065 48.6299 52.0678 48.6322C52.0688 48.633 52.0711 48.6348 52.07 48.634L52.0662 48.6308C52.063 48.6281 52.0557 48.6219 52.0468 48.6124C52.0391 48.6041 52.0301 48.5932 52.0214 48.5798C52.0195 48.5769 52.0176 48.5738 52.0158 48.5707C52.0131 48.5662 52.0105 48.5614 52.0079 48.5563L52.014 48.5684L52.0155 48.5708L52.0213 48.5798L52.0358 48.6024ZM60.4489 61.6763L60.4588 61.6916M60.4489 61.6763C60.4484 61.6747 60.448 61.6733 60.4477 61.6722L60.4471 61.6703C60.4462 61.6671 60.4458 61.6659 60.4458 61.6659C60.4458 61.6659 60.4461 61.667 60.4468 61.6686C60.4483 61.6725 60.452 61.6811 60.4588 61.6916M60.4588 61.6916L60.4588 61.6917L60.6691 61.5564L60.4588 61.6916ZM52.0881 48.2973C52.0731 48.283 52.059 48.2676 52.0451 48.2523C52.0181 48.2228 51.9915 48.1937 51.9587 48.1727C51.9569 48.1712 51.9555 48.1696 51.9541 48.168L52.0881 48.2973ZM51.8162 48.1108C51.8025 48.1047 51.7889 48.0984 51.7752 48.0921C51.7255 48.0691 51.6759 48.0461 51.6222 48.0358L51.8162 48.1108ZM43.0034 52.2165L43.0034 52.2165C42.9862 52.2334 42.9594 52.2576 42.9419 52.2734C42.9349 52.2797 42.9294 52.2847 42.9265 52.2874C42.9071 52.3054 42.8998 52.3142 42.8967 52.3187L42.6916 52.1758L42.8996 52.3144C42.8939 52.323 42.888 52.3306 42.8824 52.3373M43.0034 52.2165L42.8585 52.362C42.8681 52.3529 42.8807 52.3394 42.893 52.321L42.685 52.1823L42.8946 52.3186L42.8824 52.3373M43.0034 52.2165L43.0052 52.2147M43.0034 52.2165L43.0052 52.2147M42.8824 52.3373L36.8117 61.6769M42.8824 52.3373L36.8117 61.6769M36.8117 61.6769C36.8106 61.6807 36.8092 61.6854 36.8075 61.6905C36.8032 61.7037 36.7965 61.7228 36.7858 61.7441L36.7821 61.7516L36.7819 61.7515C36.7632 61.7861 36.7485 61.8243 36.7337 61.875L36.733 61.8773L36.733 61.8773C36.7183 61.9259 36.7093 61.9693 36.7054 62.0113C36.7053 62.0118 36.7053 62.0123 36.7052 62.0128L36.4562 61.9905C36.4554 62.0032 36.4518 62.015 36.4483 62.0269C36.4443 62.0404 36.4403 62.0538 36.4403 62.0683C36.4403 62.0861 36.445 62.1023 36.4498 62.1186L36.8117 61.6769ZM36.7079 62.1369C36.7128 62.1836 36.7216 62.2277 36.7352 62.273C36.7487 62.3147 36.7651 62.3524 36.7871 62.3942C36.8048 62.4278 36.8262 62.4591 36.8552 62.4938L36.8573 62.4963L36.8572 62.4963C36.8857 62.5312 36.9179 62.5626 36.9582 62.5954L36.8003 62.7892L36.7079 62.1369ZM36.7079 62.1369C36.7057 62.1129 36.7014 62.0926 36.6977 62.0776C36.6971 62.075 36.6964 62.0725 36.6957 62.0699L36.7079 62.1369ZM43.0052 52.2147C43.0206 52.1993 43.0344 52.1842 43.0452 52.1722M43.0052 52.2147L43.0452 52.1722M43.0452 52.1722C43.0491 52.1678 43.0525 52.164 43.0556 52.1605M43.0452 52.1722L43.0556 52.1605M43.0556 52.1605C43.062 52.1533 43.067 52.1477 43.0728 52.1415M43.0556 52.1605L43.0728 52.1415M51.0746 48.3713C51.0744 48.3714 51.0743 48.3715 51.0741 48.3716L51.0746 48.3713ZM44.1002 52.3749L44.1005 52.3752L44.1002 52.3749ZM46.8288 57.393L46.8285 57.3928L46.8219 57.403L44.5091 60.9974L44.2612 61.3827H44.7194H58.165H58.6231L58.3752 60.9974L51.6524 50.5489L51.4422 50.2222L51.2319 50.5489L46.8473 57.3627L46.8417 57.3713L46.8369 57.3803C46.8357 57.3825 46.8335 57.3863 46.8288 57.393ZM42.4891 61.3827H42.6254L42.6993 61.268L45.3618 57.1327L45.4493 56.9967L45.3611 56.8611L43.683 54.2801L43.4734 53.9577L43.2638 54.2801L38.8979 60.9964L38.6468 61.3827H39.1075H42.4891Z" fill="#808080" stroke="#F6F6F6" stroke-width="0.5"/>
<path d="M41.8191 47.0533C41.8191 48.4659 40.6691 49.6158 39.2566 49.6158C37.844 49.6158 36.6941 48.4659 36.6941 47.0533C36.6941 45.6408 37.844 44.4908 39.2566 44.4908C40.6691 44.4908 41.8191 45.6408 41.8191 47.0533ZM40.4441 47.0533C40.4441 46.3978 39.9121 45.8658 39.2566 45.8658C38.601 45.8658 38.0691 46.3978 38.0691 47.0533C38.0691 47.7089 38.601 48.2408 39.2566 48.2408C39.9121 48.2408 40.4441 47.7089 40.4441 47.0533Z" fill="#808080" stroke="#F6F6F6" stroke-width="0.5"/>
</svg>
