<svg width="100" height="100" viewBox="0 0 100 100" fill="none" xmlns="http://www.w3.org/2000/svg">
<rect x="0.25" y="0.25" width="99.5" height="99.5" fill="#F6F6F6" stroke="#808080" stroke-width="0.5"/>
<path d="M49.2146 75.241L49.214 75.2406C42.7463 71.3601 35.4324 66.3405 29.6576 60.6298C23.8621 54.8986 19.6 48.5447 19.6 41.8144C19.6 29.6436 28.4827 23.6 35.2488 23.6C42.0227 23.6 46.4533 26.9709 49.309 30.7385L49.7872 31.3694L50.2654 30.7385C53.121 26.9709 57.5517 23.6 64.3256 23.6C71.0916 23.6 79.9744 29.6436 79.9744 41.8144C79.9744 48.5447 75.7123 54.8986 69.9168 60.6298C64.1419 66.3405 56.8281 71.3601 50.3604 75.2406L50.3598 75.241C50.1869 75.345 49.9889 75.4 49.7872 75.4C49.5854 75.4 49.3875 75.345 49.2146 75.241ZM48.8329 33.8374L48.8318 33.8356C46.3857 29.7588 42.4526 25.8208 35.2488 25.8208C29.8812 25.8208 21.8208 30.6085 21.8208 41.8144C21.8208 47.5607 25.6839 53.5774 31.219 59.051C36.5269 64.3 43.3343 69.0246 49.475 72.7665L49.7872 72.9568L50.0994 72.7665C56.24 69.0246 63.0475 64.3 68.3553 59.051C73.8904 53.5774 77.7536 47.5607 77.7536 41.8144C77.7536 30.6085 69.6931 25.8208 64.3256 25.8208C57.1218 25.8208 53.1886 29.7588 50.7426 33.8356L50.7415 33.8374C50.6431 34.0028 50.5033 34.1397 50.3361 34.2348C50.1688 34.3299 49.9796 34.3799 49.7872 34.3799C49.5947 34.3799 49.4056 34.3299 49.2383 34.2348C49.071 34.1397 48.9313 34.0028 48.8329 33.8374ZM40.0321 52.137L40.0321 52.137L40.0386 52.1361C40.2606 52.1038 40.4873 52.1396 40.6886 52.2387L40.9536 51.7004L40.6886 52.2388C40.8899 52.3379 41.0565 52.4956 41.1664 52.6913L41.1663 52.6914L41.1724 52.7017C42.8988 55.6364 46.0786 57.6209 49.7872 57.6209C53.4957 57.6209 56.6755 55.6364 58.402 52.7017L58.4026 52.7007C58.4769 52.5739 58.5753 52.463 58.6925 52.3742L58.3301 51.896L58.6925 52.3742C58.8096 52.2855 58.943 52.2207 59.0852 52.1836C59.2273 52.1464 59.3754 52.1376 59.5209 52.1577C59.6665 52.1778 59.8067 52.2263 59.9335 52.3006C60.0602 52.3748 60.1712 52.4733 60.2599 52.5904C60.3486 52.7075 60.4134 52.841 60.4506 52.9831L61.0311 52.8314L60.4506 52.9831C60.4877 53.1253 60.4965 53.2734 60.4764 53.4189L61.0708 53.5009L60.4764 53.4189C60.4564 53.5645 60.4078 53.7046 60.3336 53.8314C58.2202 57.4228 54.2824 59.8417 49.7872 59.8417C45.2915 59.8417 41.3534 57.4223 39.2402 53.8304L39.2403 53.8303L39.2339 53.82C39.1369 53.6624 39.0808 53.4831 39.0707 53.2983C39.0606 53.1135 39.0969 52.9291 39.1762 52.7618C39.2555 52.5946 39.3753 52.4499 39.5248 52.3407C39.6743 52.2316 39.8487 52.1616 40.0321 52.137ZM39.2696 41.8144C39.2696 40.7288 40.1496 39.8488 41.2352 39.8488C42.3208 39.8488 43.2008 40.7288 43.2008 41.8144C43.2008 42.9 42.3208 43.78 41.2352 43.78C40.1496 43.78 39.2696 42.9 39.2696 41.8144ZM56.3736 41.8144C56.3736 40.7288 57.2536 39.8488 58.3392 39.8488C59.4247 39.8488 60.3048 40.7288 60.3048 41.8144C60.3048 42.9 59.4247 43.78 58.3392 43.78C57.2536 43.78 56.3736 42.9 56.3736 41.8144Z" fill="#808080" stroke="#F6F6F6" stroke-width="1.2"/>
</svg>
