<svg width="100" height="100" viewBox="0 0 100 100" fill="none" xmlns="http://www.w3.org/2000/svg">
<rect x="0.25" y="0.25" width="99.5" height="99.5" fill="#F6F6F6" stroke="#808080" stroke-width="0.5"/>
<path d="M30.9072 26.3289L31.741 25.55H30.6H26.3333C25.8485 25.55 25.45 25.1515 25.45 24.6667C25.45 24.1819 25.8485 23.7833 26.3333 23.7833H34.3333C34.4025 23.7833 34.4642 23.7837 34.5219 23.7894C34.5699 23.7942 34.5928 23.801 34.5983 23.8026C34.6 23.8031 34.6 23.8031 34.5988 23.8025L34.6938 23.85H34.7276C34.745 23.8583 34.7678 23.8685 34.792 23.8776C34.811 23.8847 34.8351 23.8928 34.8634 23.8998L34.8818 23.9182L34.9485 23.9849L35.0136 24.05L35.0151 24.0515L35.078 24.1144C35.0823 24.1224 35.0867 24.1302 35.0912 24.1378C35.0975 24.1482 35.1038 24.158 35.11 24.1669C35.1211 24.2003 35.1349 24.2305 35.15 24.2575V24.3062L35.1975 24.4012C35.1969 24.4 35.1969 24.4001 35.1974 24.4017C35.199 24.4072 35.2058 24.4301 35.2106 24.4781C35.2163 24.5358 35.2167 24.5975 35.2167 24.6667V32.6667C35.2167 33.1515 34.8181 33.55 34.3333 33.55C33.8485 33.55 33.45 33.1515 33.45 32.6667V27.4667V26.475L32.7037 27.128C26.7403 32.346 23.2167 40.0023 23.2167 48C23.2167 63.3152 35.6848 75.7833 51 75.7833C66.3152 75.7833 78.7833 63.3152 78.7833 48C78.7833 32.6848 66.3152 20.2167 51 20.2167C50.5152 20.2167 50.1167 19.8181 50.1167 19.3333C50.1167 18.8485 50.5152 18.45 51 18.45C67.2848 18.45 80.55 31.7152 80.55 48C80.55 64.2848 67.2848 77.55 51 77.55C34.7152 77.55 21.45 64.2848 21.45 48C21.45 39.7271 24.9298 31.9121 30.9072 26.3289ZM51.8833 46.6667V47.1167H52.3333H57.6667C58.1515 47.1167 58.55 47.5152 58.55 48C58.55 48.4848 58.1515 48.8833 57.6667 48.8833H51C50.5152 48.8833 50.1167 48.4848 50.1167 48V38.6667C50.1167 38.1819 50.5152 37.7833 51 37.7833C51.4848 37.7833 51.8833 38.1819 51.8833 38.6667V46.6667ZM34.1167 48C34.1167 38.7152 41.7152 31.1167 51 31.1167C60.2848 31.1167 67.8833 38.7152 67.8833 48C67.8833 57.2848 60.2848 64.8833 51 64.8833C41.7152 64.8833 34.1167 57.2848 34.1167 48ZM35.8833 48C35.8833 56.3152 42.6848 63.1167 51 63.1167C59.3152 63.1167 66.1167 56.3152 66.1167 48C66.1167 39.6848 59.3152 32.8833 51 32.8833C42.6848 32.8833 35.8833 39.6848 35.8833 48Z" fill="#808080" stroke="#F6F6F6" stroke-width="0.9"/>
</svg>
