<svg version="1.1" id="Слой_1" xmlns="http://www.w3.org/2000/svg" x="0" y="0" viewBox="0 0 21 21" xml:space="preserve"><style/><path d="M13.6 4c-1.4-.5-2.9-.6-4.3-.4C7.2 4 5.6 5 4.5 6.7c-1.1 1.7-1.3 3.6-.9 5.5C4 14 5 15.5 6.7 16.5c1 .6 2.1.9 3.3 1 1.4.1 2.7-.2 3.9-.8.4-.2.6-.7.4-1.1-.2-.4-.7-.6-1.1-.3-1.1.6-2.3.8-3.5.6-1.7-.3-3-1.1-3.9-2.6-.6-1.2-.8-2.5-.6-3.7.3-2 1.5-3.5 3.4-4.2 1.4-.5 2.8-.4 4.2 0 1.4.4 2.3 1.3 2.8 2.7.3.9.4 2 .4 2.9 0 .4-.1.8-.2 1.1-.1.2-.2.4-.4.4-.4.1-.7.1-1.1-.1-.2-.1-.3-.2-.4-.4-.1-.2-.1-.4-.1-.6V7.8c0-.4-.2-.6-.5-.7-.3-.2-.6-.1-.9.1-.1.1-.1.1-.2 0-.6-.4-1.3-.5-2-.5-1.4.1-2.5.8-3.1 2.2-.3.7-.4 1.5-.2 2.3.4 2.5 2.7 3.3 4.3 3 .6-.1 1.1-.4 1.5-.7h.1s.1-.1.1 0c.5.5 1.1.7 1.7.8.8.1 1.5-.1 2.1-.7.4-.4.6-.9.7-1.4.3-1.6.2-3.2-.4-4.8-.6-1.6-1.8-2.8-3.4-3.4zm-1.8 8.2c-.9.9-2.6.7-3.3-.5-.4-.7-.4-1.6 0-2.3.4-.7 1.1-1.1 2.1-1 .4 0 .7.2 1 .4.4.2.6.6.6 1.1v1.4c0 .3-.1.6-.4.9z"/></svg>