<svg version="1.1" id="Слой_1" xmlns="http://www.w3.org/2000/svg" x="0" y="0" viewBox="0 0 21 21" xml:space="preserve"><style/><path d="M10.5 3.5c-3.9 0-7 3.1-7 7 0 1.5.5 3 1.3 4.1L4 17.2l2.7-.9c1.1.7 2.4 1.2 3.9 1.2 3.9 0 7-3.1 7-7-.1-3.9-3.2-7-7.1-7zm4.1 9.9c-.2.5-.8.9-1.4 1-.4.1-.8.1-2.5-.5-2.1-.9-3.4-2.9-3.5-3.1-.1-.1-.8-1.1-.8-2.1s.5-1.5.7-1.7c.2-.2.4-.3.7-.3H8c.2 0 .3 0 .4.3.2.4.6 1.4.6 1.5 0 .1.1.2 0 .4.1.2.1.3 0 .4l-.3.3c-.1.1-.2.2-.1.4s.5.9 1.1 1.4c.8.7 1.4.9 1.6 1 .2.1.4.1.5-.1.2-.2.4-.4.5-.7.1-.2.3-.2.5-.2l1.4.7c.2.1.3.2.4.2.1.2.1.6 0 1.1z"/></svg>