<svg version="1.1" id="Слой_1" xmlns="http://www.w3.org/2000/svg" x="0" y="0" viewBox="0 0 21 21" xml:space="preserve"><style/><path d="M10.3 7.5v.6L9.7 8c-2-.3-3.8-1.2-5.4-2.7l-.7-.8-.2.6c-.4 1.2-.2 2.5.7 3.4.4.5.3.5-.4.3l-.6-.2c-.1.1.2 1.2.4 1.6.3.6.9 1.1 1.6 1.5l.6.3H5c-.6 0-.7 0-.6.3.2.7 1.1 1.5 2.1 1.9l.7.2-.6.4c-.9.5-2 .8-3 .8-.5 0-.9.1-.9.1 0 .1 1.4.8 2.2 1 2.4.7 5.3.4 7.5-.8 1.5-.9 3.1-2.7 3.8-4.5.4-.9.8-2.6.8-3.4 0-.5 0-.6.7-1.2.4-.4.7-.8.8-.9.1-.2.1-.2-.5 0-1 .3-1.1.3-.6-.2.4-.4.8-1 .8-1.2 0 0-.2 0-.4.1s-.7.3-1 .4H16l-.6-.4c-.3-.2-.7-.4-1-.5-.6-.2-1.5-.1-2 0-1.3.6-2.2 1.9-2.1 3.4z"/></svg>