<svg version="1.1" id="Слой_1" xmlns="http://www.w3.org/2000/svg" x="0" y="0" viewBox="0 0 21 21" xml:space="preserve"><style/><path d="M20.6 15.3c0-.1 0-.1-.1-.1-.4-.7-1-1.5-2-2.4-.5-.4-.7-.7-.9-.9-.2-.3-.3-.6-.1-.9.1-.2.4-.7 1-1.4.3-.4.5-.7.7-.9C20.4 7 21 5.9 20.8 5.5l-.1-.1c0-.1-.2-.1-.3-.2-.2-.2-.5-.2-.8-.2h-3.5l-.1.1c0 .1-.1.1-.1.2-.3.9-.7 1.7-1.1 2.5-.3.5-.5.8-.7 1.2-.2.3-.4.6-.6.7-.1.2-.3.3-.4.4-.1.1-.2.1-.3.1h-.2c-.1-.1-.2-.2-.2-.3-.1-.1-.1-.3-.1-.4V5.3c0-.1-.1-.2-.1-.4 0-.1-.1-.2-.2-.3-.1-.1-.2-.1-.4-.1-.4-.1-.9-.1-1.4-.1-1.3 0-2.2.1-2.6.3-.2.1-.3.3-.4.4-.2.2-.2.2-.1.3.4 0 .7.2.9.4l.1.2c0 .1.1.3.1.5s.1.5.1.8v1.4c0 .4-.1.7-.1.9 0 .2-.1.4-.1.5l-.2.2-.1.1c-.1 0-.2.1-.3.1-.1 0-.2-.1-.4-.2 0-.2-.2-.3-.3-.5-.2-.2-.3-.4-.5-.7-.2-.4-.4-.7-.6-1.2l-.2-.3c-.1-.2-.2-.5-.4-.9s-.4-.8-.5-1.1c-.1-.2-.2-.3-.3-.4h-.1s-.1-.1-.2-.1L3.9 5h-3c-.3 0-.5.1-.6.3v.3c0 .1 0 .2.1.3.4 1 .9 2 1.4 3 .5 1 .9 1.7 1.3 2.3.4.6.7 1.1 1.1 1.7.4.5.6.9.8 1l.2.2.3.3c.2.2.4.4.8.6.3.2.7.5 1.1.7.4.2.9.4 1.4.6.5.1 1.1.2 1.6.2h1.2c.2 0 .4-.1.6-.2v-.1s.1-.1.1-.2v-.3c0-.3 0-.6.1-.8.1-.3.1-.4.2-.6.1-.1.1-.2.2-.3l.2-.2h.1c.2-.1.4 0 .6.2.2.2.4.4.7.6.2.3.4.5.7.8l.7.7.2.1c.1.1.3.2.6.2.2.1.4.1.6.1h2.7c.3 0 .5 0 .6-.1l.3-.3v-.4c-.1-.2-.1-.3-.2-.4z"/></svg>