<svg width="332" height="37" viewBox="0 0 332 37" fill="none" xmlns="http://www.w3.org/2000/svg">
<path d="M55.5197 25.4748V10.1652C55.5197 9.3359 55.3925 9.3359 52.5949 9.3359V9.14453H73.927V9.3359C71.1611 9.3359 71.034 9.3359 71.034 10.1652V25.4748C71.034 26.3359 71.1611 26.3359 73.927 26.3359V26.5273H65.1207V26.3359C67.4415 26.3359 67.5687 26.3359 67.5687 25.4748V10.1652C67.5687 9.3359 67.4415 9.3359 65.1207 9.3359H61.4011C59.0803 9.3359 58.9532 9.3359 58.9532 10.1652V25.4748C58.9532 26.3359 59.0803 26.3359 61.4011 26.3359V26.5273H52.5631V26.3359C55.3607 26.3359 55.5197 26.3359 55.5197 25.4748Z" fill="black"/>
<path d="M75.7709 17.8202C75.7709 12.43 79.0455 8.79395 84.4183 8.79395C89.791 8.79395 93.0974 12.43 93.0974 17.8202C93.0974 23.2104 89.791 26.8784 84.4183 26.8784C79.0455 26.8784 75.7709 23.2104 75.7709 17.8202ZM84.4183 26.6551C88.265 26.6551 89.5367 22.5407 89.5367 17.7883C89.5367 13.036 88.265 8.95342 84.4183 8.95342C80.5715 8.95342 79.3316 13.036 79.3316 17.7883C79.3316 22.5726 80.5715 26.6551 84.4183 26.6551Z" fill="black"/>
<path d="M93.765 32.3004H93.5742L93.9239 26.3042H96.0858C98.2476 26.3042 99.106 23.1147 99.7418 10.1334C99.8054 9.30416 99.6782 9.30416 96.5309 9.30416V9.11279H113.762V9.30416C110.964 9.30416 110.837 9.30416 110.837 10.1334V25.443C110.837 26.3042 110.964 26.3042 113.762 26.3042L114.112 32.3004H113.921C113.667 29.0152 111.409 26.5274 108.294 26.5274H99.71C96.2765 26.5274 93.9557 29.0152 93.765 32.3004ZM104.511 26.3361C107.276 26.3361 107.404 26.3361 107.404 25.4749V10.1653C107.404 9.33606 107.276 9.33606 104.956 9.33606H102.571C100.155 9.33606 99.9961 9.33606 99.9326 10.1653C99.4239 21.5199 98.6291 25.443 96.9441 26.3361H104.511Z" fill="black"/>
<path d="M115.669 22.8274C115.669 21.6792 116.21 20.5309 117.036 19.9568H120.629C118.308 19.3827 116.782 17.469 116.782 14.9174C116.782 11.3452 119.262 8.76172 123.586 8.76172C127.305 8.76172 130.103 11.1857 130.103 15.2683V22.2852C130.103 24.6454 130.834 25.4428 131.947 25.4428C133.218 25.4428 133.791 24.167 133.791 21.8067H133.981C133.981 24.6773 133.25 26.878 130.071 26.878C128.195 26.878 126.669 25.8255 126.669 23.1782V21.8386C125.938 24.6454 123.554 26.878 120.565 26.878C117.45 26.878 115.669 25.4428 115.669 22.8274ZM122.25 19.9568H126.638V15.6829C126.638 12.334 124.794 10.1651 121.837 10.1651C119.198 10.1651 116.973 11.6961 116.973 14.9174C116.973 17.8837 119.198 19.9568 122.25 19.9568ZM122.218 25.4428C124.635 25.4428 126.638 22.955 126.638 20.1801H119.961C119.484 20.7542 119.103 21.6792 119.103 22.636C119.135 24.3902 120.311 25.4428 122.218 25.4428Z" fill="black"/>
<path d="M136.747 32.6833V10.1654C136.747 9.33616 136.62 9.33616 133.822 9.33616V9.14479H140.213V14.4712C140.753 10.9628 142.629 8.79395 146.348 8.79395C151.308 8.79395 153.978 12.43 153.978 17.8202C153.978 23.2105 151.276 26.8784 146.348 26.8784C142.629 26.8784 140.753 24.7095 140.213 21.2011V32.6833C140.213 33.5125 140.34 33.5125 143.614 33.5125V33.7039H133.822V33.5125C136.62 33.5125 136.747 33.5125 136.747 32.6833ZM145.267 26.3043C148.764 26.3043 150.354 22.5726 150.354 17.8202C150.354 13.0679 148.796 9.36806 145.267 9.36806C141.77 9.36806 140.181 13.0679 140.181 17.8202C140.181 22.5726 141.77 26.3043 145.267 26.3043Z" fill="black"/>
<path d="M158.556 25.4749V10.1653C158.556 9.33606 158.429 9.33606 155.631 9.33606V9.14469H164.12V9.33606C162.149 9.33606 162.022 9.33606 162.022 10.1653V19.2873L168.285 12.4299C170.001 10.5481 169.524 9.30416 166.123 9.30416V9.11279H174.261V9.30416C172.068 9.30416 170.224 10.5481 168.443 12.5256L166.218 14.9496L171.941 23.6569C173.626 26.2085 173.689 26.3042 175.819 26.3042V26.4955H167.235V26.3042C169.397 26.3042 169.556 26.3042 168.984 25.443L163.77 17.6606L161.99 19.5743V25.443C161.99 26.3042 162.117 26.3042 164.66 26.3042V26.4955H155.631V26.3042C158.429 26.3361 158.556 26.3361 158.556 25.4749Z" fill="black"/>
<path d="M179.825 25.4748V10.1652C179.825 9.3359 179.698 9.3359 176.9 9.3359V9.14453H185.738V9.3359C183.417 9.3359 183.29 9.3359 183.29 10.1652V23.9757L191.906 11.2815V10.1652C191.906 9.3359 191.779 9.3359 189.458 9.3359V9.14453H198.264V9.3359C195.498 9.3359 195.371 9.3359 195.371 10.1652V25.4748C195.371 26.3359 195.498 26.3359 198.264 26.3359V26.5273H189.458V26.3359C191.779 26.3359 191.906 26.3359 191.906 25.4748V11.6961L183.29 24.3903V25.4748C183.29 26.3359 183.417 26.3359 185.738 26.3359V26.5273H176.9V26.3359C179.698 26.3359 179.825 26.3359 179.825 25.4748Z" fill="black"/>
<path d="M215.241 25.4748V10.1652C215.241 9.3359 215.114 9.3359 212.316 9.3359V9.14453H233.648V9.3359C230.882 9.3359 230.755 9.3359 230.755 10.1652V25.4748C230.755 26.3359 230.882 26.3359 233.648 26.3359V26.5273H224.842V26.3359C227.163 26.3359 227.29 26.3359 227.29 25.4748V10.1652C227.29 9.3359 227.163 9.3359 224.842 9.3359H221.122C218.801 9.3359 218.674 9.3359 218.674 10.1652V25.4748C218.674 26.3359 218.801 26.3359 221.122 26.3359V26.5273H212.316V26.3359C215.114 26.3359 215.241 26.3359 215.241 25.4748Z" fill="black"/>
<path d="M237.813 32.6833V10.1654C237.813 9.33616 237.686 9.33616 234.888 9.33616V9.14479H241.246V14.4712C241.787 10.9628 243.662 8.79395 247.382 8.79395C252.31 8.79395 255.012 12.43 255.012 17.8202C255.012 23.2105 252.31 26.8784 247.382 26.8784C243.662 26.8784 241.787 24.7095 241.246 21.2011V32.6833C241.246 33.5125 241.373 33.5125 244.648 33.5125V33.7039H234.888V33.5125C237.686 33.5125 237.813 33.5125 237.813 32.6833ZM246.333 26.3043C249.83 26.3043 251.42 22.5726 251.42 17.8202C251.42 13.0679 249.862 9.36806 246.333 9.36806C242.836 9.36806 241.246 13.0679 241.246 17.8202C241.246 22.5726 242.836 26.3043 246.333 26.3043Z" fill="black"/>
<path d="M258.159 17.8202C258.159 12.43 261.434 8.79395 266.807 8.79395C272.18 8.79395 275.486 12.43 275.486 17.8202C275.486 23.2104 272.18 26.8784 266.807 26.8784C261.434 26.8784 258.159 23.2104 258.159 17.8202ZM266.839 26.6551C270.685 26.6551 271.957 22.5407 271.957 17.7883C271.957 13.036 270.685 8.95342 266.839 8.95342C262.992 8.95342 261.752 13.036 261.752 17.7883C261.752 22.5726 262.992 26.6551 266.839 26.6551Z" fill="black"/>
<path d="M278.665 17.8202C278.665 12.43 281.94 8.79395 286.994 8.79395C291.35 8.79395 293.416 11.4731 293.416 13.4187C293.416 14.5669 292.59 15.4281 291.414 15.4281C290.301 15.4281 289.506 14.6307 289.506 13.5144C289.506 12.2067 290.492 11.9834 290.492 11.3455C290.492 10.4525 289.347 8.98531 287.026 8.98531C283.529 8.98531 282.289 12.9084 282.289 17.1823C282.289 22.0303 284.292 25.4112 288.584 25.4112C291.636 25.4112 293.575 23.3699 293.957 19.8296H294.148C293.734 23.5294 291.509 26.8465 286.867 26.8465C281.622 26.8784 278.665 23.2105 278.665 17.8202Z" fill="black"/>
<path d="M302.382 25.4749V10.1653C302.382 9.33606 302.254 9.33606 300.538 9.33606H300.029C297.835 9.33606 295.96 12.3342 295.737 15.5875H295.546L295.96 9.11279H312.301L312.682 15.5875H312.491C312.237 12.3342 310.393 9.33606 308.231 9.33606H307.723C306.006 9.33606 305.879 9.33606 305.879 10.1653V25.4749C305.879 26.336 306.006 26.3361 309.471 26.3361V26.5274H298.821V26.3361C302.254 26.3361 302.382 26.336 302.382 25.4749Z" fill="black"/>
<path d="M314.462 17.8202C314.462 12.43 317.737 8.79395 323.11 8.79395C328.482 8.79395 331.789 12.43 331.789 17.8202C331.789 23.2104 328.482 26.8784 323.11 26.8784C317.737 26.8784 314.462 23.2104 314.462 17.8202ZM323.11 26.6551C326.957 26.6551 328.228 22.5407 328.228 17.7883C328.228 13.036 326.957 8.95342 323.11 8.95342C319.263 8.95342 318.023 13.036 318.023 17.7883C318.023 22.5726 319.263 26.6551 323.11 26.6551Z" fill="black"/>
<path d="M23.7188 16.2692L0.909531 34.5859L2.08166 36.0551L24.891 17.7383L23.7188 16.2692Z" fill="black"/>
<path d="M40.9273 26.2722C36.8262 25.3153 33.6152 22.0939 32.6615 17.9795C32.6297 17.8838 32.5025 17.8838 32.5025 17.9795C31.5488 22.0939 28.3378 25.3153 24.2367 26.2722C24.1413 26.3041 24.1413 26.4316 24.2367 26.4316C28.3378 27.3885 31.5488 30.6099 32.5025 34.7243C32.5343 34.82 32.6615 34.82 32.6615 34.7243C33.6152 30.6099 36.8262 27.3885 40.9273 26.4316C40.9909 26.3997 40.9909 26.2722 40.9273 26.2722Z" fill="black"/>
<path d="M24.2049 9.33593C28.306 10.2928 31.517 13.5142 32.4707 17.6286C32.5025 17.7243 32.6297 17.7243 32.6297 17.6286C33.5834 13.5142 36.7944 10.2928 40.8955 9.33593C40.9909 9.30404 40.9909 9.17646 40.8955 9.17646C36.7944 8.21961 33.5834 4.99822 32.6297 0.883775C32.5979 0.788091 32.4707 0.788091 32.4707 0.883775C31.517 4.99822 28.306 8.21961 24.2049 9.17646C24.1095 9.20835 24.1095 9.33593 24.2049 9.33593Z" fill="black"/>
<path d="M7.16463 9.33593C11.2658 10.2928 14.4767 13.5142 15.4305 17.6286C15.4622 17.7243 15.5894 17.7243 15.5894 17.6286C16.5432 13.5142 19.7541 10.2928 23.8552 9.33593C23.9506 9.30404 23.9506 9.17646 23.8552 9.17646C19.7541 8.21961 16.5432 4.99822 15.5894 0.883775C15.5576 0.788091 15.4305 0.788091 15.4305 0.883775C14.4767 4.99822 11.2658 8.21961 7.16463 9.17646C7.10105 9.20835 7.10105 9.33593 7.16463 9.33593Z" fill="black"/>
</svg>
