<?xml version="1.0" encoding="utf-8"?>
<!-- Generator: Adobe Illustrator 19.2.1, SVG Export Plug-In . SVG Version: 6.00 Build 0)  -->
<svg version="1.1" id="Слой_1" xmlns="http://www.w3.org/2000/svg" xmlns:xlink="http://www.w3.org/1999/xlink" x="0px" y="0px"
	 viewBox="0 0 21 21" style="enable-background:new 0 0 21 21;" xml:space="preserve">
<style type="text/css">
	.st0{fill:#0D0F0F;}
</style>
<path d="M13.6,4c-1.4-0.5-2.9-0.6-4.3-0.4C7.2,4,5.6,5,4.5,6.7c-1.1,1.7-1.3,3.6-0.9,5.5c0.4,1.8,1.4,3.3,3.1,4.3c1,0.6,2.1,0.9,3.3,1c1.4,0.1,2.7-0.2,3.9-0.8c0.4-0.2,0.6-0.7,0.4-1.1c-0.2-0.4-0.7-0.6-1.1-0.3c-1.1,0.6-2.3,0.8-3.5,0.6c-1.7-0.3-3-1.1-3.9-2.6C5.2,12.1,5,10.8,5.2,9.6c0.3-2,1.5-3.5,3.4-4.2c1.4-0.5,2.8-0.4,4.2,0c1.4,0.4,2.3,1.3,2.8,2.7C15.9,9,16,10.1,16,11c0,0.4-0.1,0.8-0.2,1.1c-0.1,0.2-0.2,0.4-0.4,0.4c-0.4,0.1-0.7,0.1-1.1-0.1c-0.2-0.1-0.3-0.2-0.4-0.4c-0.1-0.2-0.1-0.4-0.1-0.6V9.7V7.8c0-0.4-0.2-0.6-0.5-0.7c-0.3-0.2-0.6-0.1-0.9,0.1c-0.1,0.1-0.1,0.1-0.2,0c-0.6-0.4-1.3-0.5-2-0.5C8.8,6.8,7.7,7.5,7.1,8.9c-0.3,0.7-0.4,1.5-0.2,2.3c0.4,2.5,2.7,3.3,4.3,3c0.6-0.1,1.1-0.4,1.5-0.7c0,0,0,0,0.1,0c0,0,0.1-0.1,0.1,0c0.5,0.5,1.1,0.7,1.7,0.8c0.8,0.1,1.5-0.1,2.1-0.7c0.4-0.4,0.6-0.9,0.7-1.4c0.3-1.6,0.2-3.2-0.4-4.8C16.4,5.8,15.2,4.6,13.6,4z M11.8,12.2c-0.9,0.9-2.6,0.7-3.3-0.5c-0.4-0.7-0.4-1.6,0-2.3c0.4-0.7,1.1-1.1,2.1-1c0.4,0,0.7,0.2,1,0.4C12,9,12.2,9.4,12.2,9.9v0.7v0.7C12.2,11.6,12.1,11.9,11.8,12.2z"/>
</svg>
