<?xml version="1.0" encoding="utf-8"?>
<!-- Generator: Adobe Illustrator 19.2.1, SVG Export Plug-In . SVG Version: 6.00 Build 0)  -->
<svg version="1.1" id="Слой_1" xmlns="http://www.w3.org/2000/svg" xmlns:xlink="http://www.w3.org/1999/xlink" x="0px" y="0px"
	 viewBox="0 0 21 21" style="enable-background:new 0 0 21 21;" xml:space="preserve">
<style type="text/css">
	.st0{fill:none;}
</style>
	<path d="M10.5,2.5c-2.2,0-2.4,0-3.3,0c-0.9,0-1.4,0.2-1.9,0.4c-0.5,0.2-1,0.5-1.4,0.9C3.4,4.3,3.1,4.7,2.9,5.3C2.7,5.8,2.6,6.3,2.5,7.2c0,0.9,0,1.1,0,3.3c0,2.2,0,2.4,0,3.3c0,0.9,0.2,1.4,0.4,1.9c0.2,0.5,0.5,1,0.9,1.4c0.4,0.4,0.9,0.7,1.4,0.9c0.5,0.2,1.1,0.3,1.9,0.4c0.9,0,1.1,0,3.3,0c2.2,0,2.4,0,3.3,0c0.9,0,1.4-0.2,1.9-0.4c0.5-0.2,1-0.5,1.4-0.9c0.4-0.4,0.7-0.9,0.9-1.4c0.2-0.5,0.3-1.1,0.4-1.9c0-0.9,0-1.1,0-3.3c0-2.2,0-2.4,0-3.3c0-0.9-0.2-1.4-0.4-1.9c-0.2-0.5-0.5-1-0.9-1.4c-0.4-0.4-0.9-0.7-1.4-0.9c-0.5-0.2-1.1-0.3-1.9-0.4C12.9,2.5,12.7,2.5,10.5,2.5L10.5,2.5z M9.8,3.9c0.2,0,0.5,0,0.7,0c2.1,0,2.4,0,3.2,0c0.8,0,1.2,0.2,1.5,0.3c0.4,0.1,0.6,0.3,0.9,0.6c0.3,0.3,0.5,0.5,0.6,0.9C16.8,6.1,17,6.5,17,7.3c0,0.8,0,1.1,0,3.2c0,2.1,0,2.4,0,3.2c0,0.8-0.2,1.2-0.3,1.5c-0.1,0.4-0.3,0.6-0.6,0.9c-0.3,0.3-0.5,0.5-0.9,0.6c-0.3,0.1-0.7,0.2-1.5,0.3c-0.8,0-1.1,0-3.2,0c-2.1,0-2.4,0-3.2,0c-0.8,0-1.2-0.2-1.5-0.3c-0.4-0.1-0.6-0.3-0.9-0.6c-0.3-0.3-0.5-0.5-0.6-0.9C4.2,14.9,4,14.5,4,13.7c0-0.8,0-1.1,0-3.2c0-2.1,0-2.4,0-3.2c0-0.8,0.2-1.2,0.3-1.5c0.1-0.4,0.3-0.6,0.6-0.9c0.3-0.3,0.5-0.5,0.9-0.6C6.1,4.2,6.5,4,7.3,4C8,4,8.3,3.9,9.8,3.9L9.8,3.9z M14.8,5.3c-0.5,0-1,0.4-1,1c0,0.5,0.4,1,1,1s1-0.4,1-1S15.3,5.3,14.8,5.3L14.8,5.3z M10.5,6.4c-2.3,0-4.1,1.8-4.1,4.1c0,2.3,1.8,4.1,4.1,4.1c2.3,0,4.1-1.8,4.1-4.1C14.6,8.2,12.8,6.4,10.5,6.4L10.5,6.4z M10.5,7.8c1.5,0,2.7,1.2,2.7,2.7c0,1.5-1.2,2.7-2.7,2.7c-1.5,0-2.7-1.2-2.7-2.7C7.8,9,9,7.8,10.5,7.8z"/>
</svg>
