<?xml version="1.0" encoding="utf-8"?>
<!-- Generator: Adobe Illustrator 19.2.1, SVG Export Plug-In . SVG Version: 6.00 Build 0)  -->
<svg version="1.1" id="Слой_1" xmlns="http://www.w3.org/2000/svg" xmlns:xlink="http://www.w3.org/1999/xlink" x="0px" y="0px"
	 viewBox="0 0 21 21" style="enable-background:new 0 0 21 21;" xml:space="preserve">
<style type="text/css">
	.st0{fill:#0D0F0F;}
</style>
<path d="M10.5,3.5L10.5,3.5c-3.9,0-7,3.1-7,7c0,1.5,0.5,3,1.3,4.1L4,17.2l2.7-0.9c1.1,0.7,2.4,1.2,3.9,1.2c3.9,0,7-3.1,7-7C17.5,6.6,14.4,3.5,10.5,3.5z M14.6,13.4c-0.2,0.5-0.8,0.9-1.4,1c-0.4,0.1-0.8,0.1-2.5-0.5c-2.1-0.9-3.4-2.9-3.5-3.1c-0.1-0.1-0.8-1.1-0.8-2.1c0-1,0.5-1.5,0.7-1.7c0.2-0.2,0.4-0.3,0.7-0.3c0.1,0,0.2,0,0.2,0c0.2,0,0.3,0,0.4,0.3c0.2,0.4,0.6,1.4,0.6,1.5c0,0.1,0.1,0.2,0,0.4C9.1,9.1,9.1,9.2,9,9.3C8.9,9.4,8.8,9.5,8.7,9.6C8.6,9.7,8.5,9.8,8.6,10c0.1,0.2,0.5,0.9,1.1,1.4c0.8,0.7,1.4,0.9,1.6,1c0.2,0.1,0.4,0.1,0.5-0.1c0.2-0.2,0.4-0.4,0.5-0.7c0.1-0.2,0.3-0.2,0.5-0.2c0.2,0.1,1.2,0.6,1.4,0.7c0.2,0.1,0.3,0.2,0.4,0.2C14.7,12.5,14.7,12.9,14.6,13.4z"/>
</svg>
