<?xml version="1.0" encoding="utf-8"?>
<!-- Generator: Adobe Illustrator 19.2.1, SVG Export Plug-In . SVG Version: 6.00 Build 0)  -->
<svg version="1.1" id="Слой_1" xmlns="http://www.w3.org/2000/svg" xmlns:xlink="http://www.w3.org/1999/xlink" x="0px" y="0px"
	 viewBox="0 0 21 21" style="enable-background:new 0 0 21 21;" xml:space="preserve">
<style type="text/css">
	.st0{fill:none;}
</style>
<path d="M10.3,7.5l0,0.6L9.7,8C7.7,7.7,5.9,6.8,4.3,5.3L3.6,4.5L3.4,5.1C3,6.3,3.2,7.6,4.1,8.5C4.5,9,4.4,9,3.7,8.8C3.4,8.7,3.1,8.6,3.1,8.6C3,8.7,3.3,9.8,3.5,10.2c0.3,0.6,0.9,1.1,1.6,1.5l0.6,0.3l-0.7,0c-0.6,0-0.7,0-0.6,0.3c0.2,0.7,1.1,1.5,2.1,1.9l0.7,0.2l-0.6,0.4c-0.9,0.5-2,0.8-3,0.8c-0.5,0-0.9,0.1-0.9,0.1c0,0.1,1.4,0.8,2.2,1c2.4,0.7,5.3,0.4,7.5-0.8c1.5-0.9,3.1-2.7,3.8-4.5c0.4-0.9,0.8-2.6,0.8-3.4c0-0.5,0-0.6,0.7-1.2c0.4-0.4,0.7-0.8,0.8-0.9c0.1-0.2,0.1-0.2-0.5,0c-1,0.3-1.1,0.3-0.6-0.2c0.4-0.4,0.8-1,0.8-1.2c0,0-0.2,0-0.4,0.1c-0.2,0.1-0.7,0.3-1,0.4L16,5l-0.6-0.4c-0.3-0.2-0.7-0.4-1-0.5c-0.6-0.2-1.5-0.1-2,0C11.1,4.7,10.2,6,10.3,7.5z"/>
</svg>
