<?xml version="1.0" encoding="utf-8"?>
<!-- Generator: Adobe Illustrator 19.2.1, SVG Export Plug-In . SVG Version: 6.00 Build 0)  -->
<svg version="1.1" id="Слой_1" xmlns="http://www.w3.org/2000/svg" xmlns:xlink="http://www.w3.org/1999/xlink" x="0px" y="0px"
	 viewBox="0 0 21 21" style="enable-background:new 0 0 21 21;" xml:space="preserve">
<style type="text/css">
	.st0{fill:none;}
</style>
<path d="M20.6,15.3c0-0.1,0-0.1-0.1-0.1c-0.4-0.7-1-1.5-2-2.4l0,0l0,0l0,0h0c-0.5-0.4-0.7-0.7-0.9-0.9c-0.2-0.3-0.3-0.6-0.1-0.9c0.1-0.2,0.4-0.7,1-1.4c0.3-0.4,0.5-0.7,0.7-0.9c1.2-1.7,1.8-2.8,1.6-3.2l-0.1-0.1c0-0.1-0.2-0.1-0.3-0.2C20.2,5,19.9,5,19.6,5l-3.1,0c0,0-0.1,0-0.2,0c-0.1,0-0.1,0-0.1,0l-0.1,0l0,0c0,0-0.1,0.1-0.1,0.1c0,0.1-0.1,0.1-0.1,0.2c-0.3,0.9-0.7,1.7-1.1,2.5c-0.3,0.5-0.5,0.8-0.7,1.2c-0.2,0.3-0.4,0.6-0.6,0.7c-0.1,0.2-0.3,0.3-0.4,0.4c-0.1,0.1-0.2,0.1-0.3,0.1c-0.1,0-0.1,0-0.2,0c-0.1-0.1-0.2-0.2-0.2-0.3c-0.1-0.1-0.1-0.3-0.1-0.4c0-0.2,0-0.3,0-0.4c0-0.1,0-0.3,0-0.5c0-0.2,0-0.4,0-0.5c0-0.3,0-0.6,0-0.9c0-0.3,0-0.6,0-0.8c0-0.2,0-0.4,0-0.6c0-0.2,0-0.4,0-0.5c0-0.1-0.1-0.2-0.1-0.4c0-0.1-0.1-0.2-0.2-0.3c-0.1-0.1-0.2-0.1-0.4-0.1c-0.4-0.1-0.9-0.1-1.4-0.1c-1.3,0-2.2,0.1-2.6,0.3C7.4,4.8,7.3,5,7.2,5.1C7,5.3,7,5.3,7.1,5.4C7.5,5.4,7.8,5.6,8,5.8L8.1,6c0,0.1,0.1,0.3,0.1,0.5c0,0.2,0.1,0.5,0.1,0.8c0,0.5,0,1,0,1.4c0,0.4-0.1,0.7-0.1,0.9c0,0.2-0.1,0.4-0.1,0.5C8,10.2,8,10.2,7.9,10.3c0,0,0,0-0.1,0.1c-0.1,0-0.2,0.1-0.3,0.1c-0.1,0-0.2-0.1-0.4-0.2C7.1,10.1,6.9,10,6.8,9.8C6.6,9.6,6.5,9.4,6.3,9.1C6.1,8.7,5.9,8.4,5.7,7.9L5.5,7.6C5.4,7.4,5.3,7.1,5.1,6.7C4.9,6.3,4.7,5.9,4.6,5.6C4.5,5.4,4.4,5.3,4.3,5.2l-0.1,0c0,0-0.1-0.1-0.2-0.1C4,5.1,3.9,5,3.9,5L0.9,5C0.6,5,0.4,5.1,0.3,5.3l0,0.1c0,0,0,0.1,0,0.2c0,0.1,0,0.2,0.1,0.3c0.4,1,0.9,2,1.4,3c0.5,1,0.9,1.7,1.3,2.3c0.4,0.6,0.7,1.1,1.1,1.7c0.4,0.5,0.6,0.9,0.8,1C5,13.9,5.1,14,5.2,14.1l0.3,0.3c0.2,0.2,0.4,0.4,0.8,0.6c0.3,0.2,0.7,0.5,1.1,0.7c0.4,0.2,0.9,0.4,1.4,0.6c0.5,0.1,1.1,0.2,1.6,0.2h1.2c0.2,0,0.4-0.1,0.6-0.2l0-0.1c0,0,0.1-0.1,0.1-0.2c0-0.1,0-0.2,0-0.3c0-0.3,0-0.6,0.1-0.8c0.1-0.3,0.1-0.4,0.2-0.6c0.1-0.1,0.1-0.2,0.2-0.3c0.1-0.1,0.1-0.1,0.2-0.2c0,0,0.1,0,0.1,0c0.2-0.1,0.4,0,0.6,0.2c0.2,0.2,0.4,0.4,0.7,0.6c0.2,0.3,0.4,0.5,0.7,0.8c0.3,0.3,0.5,0.5,0.7,0.7l0.2,0.1c0.1,0.1,0.3,0.2,0.6,0.2c0.2,0.1,0.4,0.1,0.6,0.1l2.7,0c0.3,0,0.5,0,0.6-0.1c0.1-0.1,0.2-0.2,0.3-0.3c0-0.1,0-0.2,0-0.4C20.7,15.5,20.7,15.4,20.6,15.3z"/>
</svg>
