<svg version="1.0" xmlns="http://www.w3.org/2000/svg" width="853.333" height="853.333" viewBox="0 0 640 640"><path d="M232.9 39.2c0 .2-.2 1.1-.4 2-.3 1.9-2.3 8.5-3.2 10.8-.4.8-.7 1.7-.8 2-1.4 5.3-2 6.7-8.5 20.5-5.5 11.6-17 29.7-24.2 37.9-14.3 16.5-26.5 26.7-48.3 40.3-3.7 2.3-20 10-24 11.4-2.2.7-4.4 1.6-5 2-.5.3-4.6 1.7-9 2.9-4.4 1.3-8.6 2.8-9.3 3.3-1.5 1.2-.4 2.6 2.4 3.1 3.6.7 10.9 2.8 11.9 3.4.6.4 1.6.7 2.4.8 3.6.6 20.5 8.2 30.6 13.9 12 6.7 27.7 18.8 37.9 29.1 6.6 6.6 12.6 13.5 14.4 16.3.9 1.4 2.8 3.8 4.1 5.3 2.3 2.6 4.2 5.5 5.7 8.8.4.8 1.1 1.7 1.5 2 1.2.9 11 20.1 14.1 27.9 1.7 4.2 4.1 11.4 5.5 16.1 2.1 7.3 3.9 10.7 5 9.6.3-.2 1.9-5.8 3.7-13.1.3-1.1.8-2.4 4.3-11.5 3.2-8.5 8.5-19.4 9.5-19.8.4-.2.8-1.2.8-2.3 0-1 .5-1.9 1-1.9.6 0 1-.5 1-1 0-1 9-14.8 11.5-17.7.5-.6 2.4-2.9 4-5 9.8-12.4 26.5-27.5 40.8-37 8.6-5.7 31.3-17.3 33.8-17.3.8 0 1.9-.4 2.5-.9.5-.4 4.3-1.8 8.4-3 15.1-4.4 16-5.6 6.4-8.2-3.2-.8-6.6-1.8-7.4-2.2-.8-.3-4.4-1.5-8-2.7-7.1-2.5-27.6-12.3-30.1-14.6-.8-.8-2.1-1.4-2.7-1.4-.7 0-1.2-.5-1.2-1 0-.6-.5-1-1.1-1-1.1 0-15.3-10.6-20.8-15.5-25.3-22.8-43-50.2-52.8-82-1.3-4.4-2.6-8.6-2.8-9.3-.4-1-3.3-1.8-3.6-1z"/><path d="M503.9 40c-.1.5-.2 1.3-.4 1.7-.1.5-.5 2.1-.9 3.8-1.5 5.7-6.9 20-10.4 27.5-3.4 7.4-12.6 23.4-14.7 25.6-.5.6-1.7 2.2-2.5 3.4-6.6 10.1-24.1 28.2-36 37.3-12 9.1-35.7 22.7-39.7 22.7-.7 0-1.3.5-1.3 1.2 0 .6-.3.8-.7.5-.3-.4-1.1-.3-1.7.2-.6.5-3.8 1.7-7.1 2.6-3.3 1-6.6 2.2-7.2 2.7-.7.6-1.3.8-1.3.5 0-.3-1.9.1-4.2.8-4.4 1.2-6.6 4.5-3.2 4.5 3.4 0 26 8.3 36 13.2 33.8 16.5 62.2 44.1 80.1 77.8 4.6 8.7 10.4 22.9 12.8 31.5 3.1 10.6 3.6 11.7 5.1 10.4.8-.6 1.4-1.7 1.4-2.3 0-1.3 5.5-18.8 7-22.1 3.7-8.6 9.6-20.5 11.2-22.7 1.1-1.6 1.6-2.8 1.1-2.8-.4 0-.3-.4.2-.8 1.5-1.1 5.5-7 5.5-8.2 0-.5.5-1 1-1 .6 0 1-.6 1-1.3 0-.7 1-2.3 2.3-3.7 1.2-1.4 3.6-4.3 5.2-6.5 3.9-5.2 19.7-21 26-26 2.8-2.2 5.2-4.3 5.5-4.6.9-1.1 12.8-8.9 18.2-11.9 5-2.9 15-7.8 22.8-11.2 6-2.7 20.7-7.4 24.3-7.7.4-.1.7-.9.7-1.9 0-1.7-2.7-2.8-14-5.7-7-1.8-28.2-11.6-36.8-17.1-2.9-1.9-5.4-3.4-5.7-3.4-.3 0-1.3-.6-2.2-1.4-1-.8-4.7-3.6-8.3-6.2-6.5-4.7-32-29.8-32-31.4 0-.5-.6-1.5-1.4-2.3-2.3-2.3-12.1-17.3-14.7-22.5-1.3-2.6-2.7-4.9-3.1-5-.5-.2-.8-.8-.8-1.4 0-.6-1.4-4.1-3.1-7.7-3.1-6.6-9.9-26.3-9.9-28.8 0-1.5-3.9-1.8-4.1-.3zM360.4 289.2c-1.6 1.2-3.1 2.5-3.4 2.8-.3.3-2.5 2.1-5 4s-4.7 3.7-5 4c-.3.3-4.8 3.9-10 8-9.2 7.3-13.1 10.4-15.4 12.5-.6.6-5.4 4.4-10.6 8.5-5.2 4.1-10 7.9-10.6 8.5-1.5 1.3-2.7 2.2-16.9 13.5-6.6 5.2-12.2 9.7-12.5 10-.3.3-16.5 13.4-36 29-43.1 34.5-47.1 37.7-49 39.3-.8.7-3.7 3.1-6.5 5.3-2.7 2.1-5.2 4.1-5.5 4.4-.3.3-3.4 2.8-7 5.5-3.6 2.8-7.1 5.6-7.8 6.3-.8.7-3 2.5-5 4s-4.4 3.4-5.3 4.2c-.9.8-2.5 2.2-3.5 3-1.1.8-5.1 4-8.9 7-3.8 3-7.9 6.2-9 7.2-1.1.9-6.3 5.1-11.5 9.2-5.2 4.2-11.3 9.1-13.4 10.9-2.2 1.8-5.4 4.3-7.3 5.6-1.8 1.3-3.3 2.8-3.3 3.3 0 .4-.6.8-1.4.8-.8 0-1.6.3-1.8.7-.2.7-9.2 8.3-12.3 10.5-.5.4-2.2 1.8-3.7 3-1.5 1.3-4.2 3.4-5.9 4.8-3.9 3-10.8 8.5-12.9 10.3-.8.6-3 2.5-5 4-1.9 1.6-5.1 4.1-7 5.7-1.9 1.5-12 9.6-22.5 18-10.4 8.4-19 15.4-19 15.7 0 .2 3.8 5.3 8.5 11.3 5.4 7 9.2 10.9 10.4 11 1.6 0 4.9-2.2 13.1-9.2C40 585.5 52.4 576 53.1 576c.5 0 .9-.6.9-1.3 0-.7 1.3-2 2.9-3 1.6-.9 6.1-4.3 9.9-7.5 3.8-3.1 8.6-7.1 10.7-8.7 2.1-1.7 4.3-3.5 4.9-4 .6-.6 3.1-2.6 5.6-4.5 2.5-1.9 5-3.9 5.6-4.5.6-.5 2.6-2.1 4.4-3.5 1.8-1.4 3.8-3 4.4-3.5.6-.6 3.3-2.8 6.1-5 2.7-2.2 5.9-4.7 7-5.7 1.1-.9 4-3.2 6.5-5.2s5.2-4.2 6-4.9c.8-.7 8.5-6.9 17-13.7 8.5-6.8 16.3-13.2 17.3-14.2s2.1-1.8 2.5-1.8c.4 0 2.5-1.6 4.5-3.5s3.9-3.5 4.1-3.5c.2 0 1.5-.9 2.8-2 3.2-2.7 20.6-16.8 25.3-20.5 2.1-1.7 4.3-3.5 4.9-4 .6-.6 7.9-6.5 16.1-13 8.3-6.6 15.2-12.2 15.5-12.5.4-.5 27.5-22.4 44.4-36 15.9-12.7 68.5-55.2 70-56.5.6-.6 3.1-2.6 5.6-4.5 6.4-4.9 6.9-5.4 8.4-6.7.8-.7 4.9-4 9.1-7.3l7.6-6.1-4.3-5.2c-2.4-2.8-5-5.9-5.8-6.7-.8-.9-3.1-3.5-5.1-5.8-2-2.3-3.9-4.2-4.2-4.2-.2 0-1.7 1-3.3 2.2zm143.1 23.6c-1 .7-1.2 1.4-2.1 5.6-2 10.1-12.2 33.7-20.1 46.6-9.6 15.5-26.5 34.9-40.4 46.3-5 4.2-25 17.3-25.6 16.9-.3-.2-.9 0-1.2.5-.3.4-3.3 2.1-6.6 3.7-3.3 1.5-8.1 3.9-10.6 5.1-2.6 1.3-6.2 2.6-8 3-1.9.4-4 1.2-4.6 1.7-.7.6-1.3.8-1.3.4s-1.3 0-3 .9c-1.6.8-3.1 1.5-3.2 1.4-.2 0-2 .2-4 .6-5.1 1-4.8 3.1.5 4.6 37.4 10.5 70.7 31.7 92.6 58.9 2 2.5 3.9 4.7 4.2 5 1.3 1.1 12.9 18.9 12.9 19.8 0 .6.4 1.2.9 1.4 2.4.9 14.5 30 18.1 43.5 1.3 5.3 3.5 5.6 4.5.6.4-2.1 1-4.2 1.3-4.8.4-.5.7-1.5.8-2 .5-2.8 5-14.8 8-21.3 1.9-4.1 3.4-7.5 3.4-7.7 0-1.5 14.5-24.8 17.5-28.1.6-.6 2.1-2.5 3.5-4.4 3.4-4.4 21.7-22.9 25.9-26 1.8-1.4 4.7-3.6 6.4-5 3.9-3.2 17.3-11.7 21-13.3 1.5-.6 2.7-1.5 2.7-1.9 0-.5.8-.8 1.9-.8 1 0 2.4-.7 3.1-1.5.7-.8 2-1.5 2.9-1.5.9 0 2.1-.4 2.7-.9 1.1-1.1 19.4-8 22.3-8.4 1.1-.2 2.4-.6 2.7-1 .4-.4 1.8-.7 3-.7 1.3 0 2.8-.9 3.3-1.9.9-1.7.6-2-2.7-2.7-4.2-.9-5-1-5.7-1.4-.3-.1-.8-.3-1.2-.4-10.3-2.6-36.3-14.1-37.9-16.7-.3-.5-.9-.7-1.3-.5-.4.3-1.7-.4-2.9-1.4-1.2-1.1-2.4-2-2.8-2-2.2 0-21.6-15.8-32.8-26.6-17.1-16.7-34.3-45.6-42.1-70.9-4-12.8-4.5-13.8-6-12.7z"/></svg>