<svg width="332" height="37" fill="none" xmlns="http://www.w3.org/2000/svg"><path d="M55.52 25.475v-15.31c0-.83-.128-.83-2.925-.83v-.19h21.332v.19c-2.766 0-2.893 0-2.893.83v15.31c0 .86.127.86 2.893.86v.192h-8.806v-.191c2.32 0 2.448 0 2.448-.861v-15.31c0-.83-.127-.83-2.448-.83H61.4c-2.32 0-2.448 0-2.448.83v15.31c0 .86.127.86 2.448.86v.192h-8.838v-.191c2.798 0 2.957 0 2.957-.861zm20.25-7.655c0-5.39 3.276-9.026 8.648-9.026 5.373 0 8.68 3.636 8.68 9.026s-3.307 9.058-8.68 9.058c-5.373 0-8.647-3.668-8.647-9.058zm8.648 8.835c3.847 0 5.119-4.114 5.119-8.867 0-4.752-1.272-8.835-5.119-8.835-3.847 0-5.086 4.083-5.086 8.835 0 4.785 1.24 8.867 5.086 8.867zm9.347 5.645h-.19l.349-5.996h2.162c2.162 0 3.02-3.19 3.656-16.17.063-.83-.064-.83-3.211-.83v-.191h17.231v.191c-2.798 0-2.925 0-2.925.83v15.309c0 .861.127.861 2.925.861l.35 5.996h-.191c-.254-3.285-2.512-5.773-5.627-5.773H99.71c-3.433 0-5.754 2.488-5.945 5.773zm10.746-5.964c2.765 0 2.893 0 2.893-.861v-15.31c0-.829-.128-.829-2.448-.829h-2.385c-2.416 0-2.575 0-2.638.83-.51 11.354-1.304 15.277-2.989 16.17h7.567zm11.158-3.509c0-1.148.541-2.296 1.367-2.87h3.593c-2.321-.574-3.847-2.488-3.847-5.04 0-3.572 2.48-6.155 6.804-6.155 3.719 0 6.517 2.424 6.517 6.506v7.017c0 2.36.731 3.158 1.844 3.158 1.271 0 1.844-1.276 1.844-3.636h.19c0 2.87-.731 5.071-3.91 5.071-1.876 0-3.402-1.052-3.402-3.7v-1.34c-.731 2.807-3.115 5.04-6.104 5.04-3.115 0-4.896-1.435-4.896-4.05zm6.581-2.87h4.388v-4.274c0-3.349-1.844-5.518-4.801-5.518-2.639 0-4.864 1.531-4.864 4.752 0 2.967 2.225 5.04 5.277 5.04zm-.032 5.486c2.417 0 4.42-2.488 4.42-5.263h-6.677c-.477.574-.858 1.5-.858 2.456.032 1.754 1.208 2.807 3.115 2.807z" fill="#000"/><path d="M136.747 32.683V10.165c0-.829-.127-.829-2.925-.829v-.191h6.391v5.326c.54-3.508 2.416-5.677 6.135-5.677 4.96 0 7.63 3.636 7.63 9.026s-2.702 9.058-7.63 9.058c-3.719 0-5.595-2.169-6.135-5.677v11.482c0 .83.127.83 3.401.83v.19h-9.792v-.19c2.798 0 2.925 0 2.925-.83zm8.52-6.379c3.497 0 5.087-3.731 5.087-8.484 0-4.752-1.558-8.452-5.087-8.452-3.497 0-5.086 3.7-5.086 8.452 0 4.753 1.589 8.484 5.086 8.484zm13.289-.829v-15.31c0-.829-.127-.829-2.925-.829v-.191h8.489v.191c-1.971 0-2.098 0-2.098.83v9.121l6.263-6.857c1.716-1.882 1.239-3.126-2.162-3.126v-.191h8.138v.191c-2.193 0-4.037 1.244-5.818 3.222l-2.225 2.424 5.723 8.707c1.685 2.552 1.748 2.647 3.878 2.647v.192h-8.584v-.192c2.162 0 2.321 0 1.749-.861l-5.214-7.782-1.78 1.913v5.869c0 .861.127.861 2.67.861v.192h-9.029v-.192c2.798.032 2.925.032 2.925-.83zm21.269 0v-15.31c0-.83-.127-.83-2.925-.83v-.19h8.838v.19c-2.321 0-2.448 0-2.448.83v13.81l8.616-12.694v-1.116c0-.83-.127-.83-2.448-.83v-.19h8.806v.19c-2.766 0-2.893 0-2.893.83v15.31c0 .86.127.86 2.893.86v.192h-8.806v-.191c2.321 0 2.448 0 2.448-.861V11.696L183.29 24.39v1.085c0 .86.127.86 2.448.86v.192H176.9v-.191c2.798 0 2.925 0 2.925-.861zm35.416 0v-15.31c0-.83-.127-.83-2.925-.83v-.19h21.332v.19c-2.766 0-2.893 0-2.893.83v15.31c0 .86.127.86 2.893.86v.192h-8.806v-.191c2.321 0 2.448 0 2.448-.861v-15.31c0-.83-.127-.83-2.448-.83h-3.72c-2.321 0-2.448 0-2.448.83v15.31c0 .86.127.86 2.448.86v.192h-8.806v-.191c2.798 0 2.925 0 2.925-.861zm22.572 7.208V10.165c0-.829-.127-.829-2.925-.829v-.191h6.358v5.326c.541-3.508 2.416-5.677 6.136-5.677 4.928 0 7.63 3.636 7.63 9.026s-2.702 9.058-7.63 9.058c-3.72 0-5.595-2.169-6.136-5.677v11.482c0 .83.127.83 3.402.83v.19h-9.76v-.19c2.798 0 2.925 0 2.925-.83zm8.52-6.379c3.497 0 5.087-3.731 5.087-8.484 0-4.752-1.558-8.452-5.087-8.452-3.497 0-5.087 3.7-5.087 8.452 0 4.753 1.59 8.484 5.087 8.484zm11.826-8.484c0-5.39 3.275-9.026 8.648-9.026 5.373 0 8.679 3.636 8.679 9.026s-3.306 9.058-8.679 9.058-8.648-3.668-8.648-9.058zm8.68 8.835c3.846 0 5.118-4.114 5.118-8.867 0-4.752-1.272-8.835-5.118-8.835-3.847 0-5.087 4.083-5.087 8.835 0 4.785 1.24 8.867 5.087 8.867zm11.826-8.835c0-5.39 3.275-9.026 8.329-9.026 4.356 0 6.422 2.68 6.422 4.625 0 1.148-.826 2.01-2.002 2.01-1.113 0-1.908-.798-1.908-1.915 0-1.307.986-1.53.986-2.168 0-.893-1.145-2.36-3.466-2.36-3.497 0-4.737 3.922-4.737 8.196 0 4.848 2.003 8.23 6.295 8.23 3.052 0 4.991-2.042 5.373-5.582h.191c-.414 3.7-2.639 7.017-7.281 7.017-5.245.031-8.202-3.637-8.202-9.027zm23.717 7.655v-15.31c0-.829-.128-.829-1.844-.829h-.509c-2.194 0-4.069 2.998-4.292 6.252h-.191l.414-6.475h16.341l.381 6.475h-.191c-.254-3.254-2.098-6.252-4.26-6.252h-.508c-1.717 0-1.844 0-1.844.83v15.309c0 .861.127.861 3.592.861v.191h-10.65v-.19c3.433 0 3.561-.001 3.561-.862zm12.08-7.655c0-5.39 3.275-9.026 8.648-9.026 5.372 0 8.679 3.636 8.679 9.026s-3.307 9.058-8.679 9.058c-5.373 0-8.648-3.668-8.648-9.058zm8.648 8.835c3.847 0 5.118-4.114 5.118-8.867 0-4.752-1.271-8.835-5.118-8.835-3.847 0-5.087 4.083-5.087 8.835 0 4.785 1.24 8.867 5.087 8.867zM23.719 16.27L.909 34.585l1.173 1.47L24.89 17.737l-1.172-1.469zm17.208 10.002a11.086 11.086 0 01-8.266-8.292c-.031-.096-.159-.096-.159 0a11.086 11.086 0 01-8.265 8.292c-.096.032-.096.16 0 .16a11.086 11.086 0 018.265 8.292c.032.096.16.096.16 0a11.086 11.086 0 018.265-8.292c.064-.032.064-.16 0-.16zM24.205 9.336a11.086 11.086 0 018.266 8.293c.032.095.159.095.159 0a11.086 11.086 0 018.265-8.293c.096-.032.096-.16 0-.16A11.086 11.086 0 0132.63.884c-.032-.096-.16-.096-.16 0a11.086 11.086 0 01-8.265 8.292c-.095.032-.095.16 0 .16zm-17.04 0a11.086 11.086 0 018.265 8.293c.032.095.16.095.16 0a11.086 11.086 0 018.265-8.293c.096-.032.096-.16 0-.16A11.086 11.086 0 0115.59.884c-.031-.096-.159-.096-.159 0a11.086 11.086 0 01-8.265 8.292c-.064.032-.064.16 0 .16z" fill="#000"/></svg>